<svg xmlns="http://www.w3.org/2000/svg" version="1.1" xmlns:xlink="http://www.w3.org/1999/xlink" width="512" height="512" x="0" y="0" viewBox="0 0 682.667 682.667" style="enable-background:new 0 0 512 512" xml:space="preserve" class=""><g><defs><clipPath id="a" clipPathUnits="userSpaceOnUse"><path d="M0 512h512V0H0Z" fill="#000000" opacity="1" data-original="#000000"></path></clipPath></defs><g clip-path="url(#a)" transform="matrix(1.33333 0 0 -1.33333 0 682.667)"><path d="M0 0c0 19.014 15.414 34.428 34.429 34.428 19.014 0 34.428-15.414 34.428-34.428" style="stroke-width:30;stroke-linecap:butt;stroke-linejoin:miter;stroke-miterlimit:10;stroke-dasharray:none;stroke-opacity:1" transform="translate(135.5 228.1)" fill="none" stroke="#000000" stroke-width="30" stroke-linecap="butt" stroke-linejoin="miter" stroke-miterlimit="10" stroke-dasharray="none" stroke-opacity="" data-original="#000000" class=""></path><path d="M0 0c0 19.014 15.414 34.428 34.428 34.428 19.015 0 34.429-15.414 34.429-34.428" style="stroke-width:30;stroke-linecap:butt;stroke-linejoin:miter;stroke-miterlimit:10;stroke-dasharray:none;stroke-opacity:1" transform="translate(307.643 228.1)" fill="none" stroke="#000000" stroke-width="30" stroke-linecap="butt" stroke-linejoin="miter" stroke-miterlimit="10" stroke-dasharray="none" stroke-opacity="" data-original="#000000" class=""></path><path d="M0 0c11.977-20.297 34.057-33.922 59.331-33.922S106.685-20.297 118.662 0" style="stroke-width:30;stroke-linecap:butt;stroke-linejoin:miter;stroke-miterlimit:10;stroke-dasharray:none;stroke-opacity:1" transform="translate(196.669 159.243)" fill="none" stroke="#000000" stroke-width="30" stroke-linecap="butt" stroke-linejoin="miter" stroke-miterlimit="10" stroke-dasharray="none" stroke-opacity="" data-original="#000000" class=""></path><path d="M0 0c0-28.18-22.57-51.09-50.63-51.62C-73.31-135.49-149.95-197.2-241-197.2c-91.05 0-167.69 61.71-190.37 145.58C-459.43-51.09-482-28.18-482 0c0 14.26 5.78 27.17 15.12 36.52 9.13 9.12 21.65 14.84 35.51 15.1C-408.69 135.49-332.05 197.2-241 197.2c91.05 0 167.69-61.71 190.37-145.58 13.86-.26 26.38-5.98 35.51-15.1C-5.78 27.17 0 14.26 0 0Z" style="stroke-width:30;stroke-linecap:butt;stroke-linejoin:miter;stroke-miterlimit:10;stroke-dasharray:none;stroke-opacity:1" transform="translate(497 234.1)" fill="none" stroke="#000000" stroke-width="30" stroke-linecap="butt" stroke-linejoin="miter" stroke-miterlimit="10" stroke-dasharray="none" stroke-opacity="" data-original="#000000" class=""></path><path d="M0 0c0-35.441 28.73-64.171 64.171-64.171S128.343-35.441 128.343 0 99.612 64.171 64.171 64.171H54.114c-32.474 0-58.8 26.326-58.8 58.801" style="stroke-width:30;stroke-linecap:butt;stroke-linejoin:miter;stroke-miterlimit:10;stroke-dasharray:none;stroke-opacity:1" transform="translate(191.829 367.128)" fill="none" stroke="#000000" stroke-width="30" stroke-linecap="butt" stroke-linejoin="miter" stroke-miterlimit="10" stroke-dasharray="none" stroke-opacity="" data-original="#000000" class=""></path><path d="M0 0h-78.914c-32.475 0-58.8 26.326-58.8 58.8" style="stroke-width:30;stroke-linecap:butt;stroke-linejoin:miter;stroke-miterlimit:10;stroke-dasharray:none;stroke-opacity:1" transform="translate(256 431.3)" fill="none" stroke="#000000" stroke-width="30" stroke-linecap="butt" stroke-linejoin="miter" stroke-miterlimit="10" stroke-dasharray="none" stroke-opacity="" data-original="#000000" class=""></path></g></g></svg>