<svg xmlns="http://www.w3.org/2000/svg" version="1.1" xmlns:xlink="http://www.w3.org/1999/xlink" width="512" height="512" x="0" y="0" viewBox="0 0 1000 1000" style="enable-background:new 0 0 512 512" xml:space="preserve" class=""><g><path d="M755.3 634.05a40.51 40.51 0 0 1-4.42-.25h-.41c-11.73-1.38-27-8-46.53-20.11a340.88 340.88 0 0 1-69.27-57.13l-136.91-146.7A16 16 0 1 1 521.15 388l136.91 146.67a309.21 309.21 0 0 0 62.74 51.78c15.57 9.65 24.77 13.4 29.92 14.8a30.5 30.5 0 0 0-5.58-12.33c-17.42-23.5-62.77-82-65.46-85.47-9-11.05-23.12-25.42-41.89-42.74-39.32-36.26-76.64-73.81-108-105.76-52.5-53.59-112.45-71.74-113.05-71.95a16 16 0 0 1-11.22-12.55A153.43 153.43 0 0 0 381 215.38c-24.52-34.1-60-49.82-105.46-46.74-.49 0-.71.05-1.18 0-3.55 0-62.45 2.3-93.83 86.65a16 16 0 0 1-31.16 3.07l-.23-.71a16 16 0 0 1 .19-10.19c20.29-56.91 52.52-84 76-96.64 24.12-13 44-14.11 48.56-14.18 71.62-4.68 112.33 30.61 133.88 61.09a188.15 188.15 0 0 1 27 57.64c20.35 7.54 71.49 29.82 117.88 77.14 31 31.66 68 68.85 106.8 104.64 20 18.41 35.15 33.95 45.13 46.19l.24.3c1.95 2.51 47.92 61.81 66 86.15a62.05 62.05 0 0 1 11.82 28.39c2.06 14.91-2.83 23.46-7.3 28-3.65 3.82-9.96 7.87-20.04 7.87z" fill="#000000" opacity="1" data-original="#000000" class=""></path><path d="M458.1 684.54c-3.76 0-6.18-.07-6.93-.09-75-1.56-134.93-22-178.22-60.79a197.77 197.77 0 0 1-57.54-90.86c-.51-1.78-1-3.52-1.5-5.26-1.86-6.56-3.63-12.75-5.62-18.92-11.75-36.23-2.7-99.08 1.74-124.41a59.76 59.76 0 0 0 .33-19.91c-6.28-38.24-41.88-59.69-42.24-59.9a16 16 0 0 1-7.13-9l-.28-.9A16 16 0 0 1 188 279.18c11.5 7.83 46.54 35 53.91 79.93a91.33 91.33 0 0 1-.38 30.59c-6.47 37-10.61 85-2.81 109.07 2.17 6.72 4.09 13.48 5.95 20l1.47 5.14c10.9 37.58 52.78 125.39 205.78 128.54h.23c.75 0 75.44 2.28 115.84-23a15.61 15.61 0 0 1 19.21 1.7l.12.1c2.17 1.79 10.3 8.4 22.59 17.41l.58.42a16 16 0 0 1-19 25.72l-.51-.36c-6.55-4.81-12-9-16.12-12.21-40.86 20.39-97.06 22.31-116.76 22.31zM674.26 620.1c-41.45 0-104.74-46.38-192.75-141.14A16 16 0 0 1 505 457.18c119.54 128.7 162.3 132.55 172.55 130.65 3.44-.63 4.65-2.21 5.07-3.17a16 16 0 0 1 30.73 8.88c-.53 2-5.85 19.84-27.28 25.18a48.79 48.79 0 0 1-11.81 1.38z" fill="#000000" opacity="1" data-original="#000000" class=""></path><path d="M580.26 598.41c-30 0-73.82-20.54-132.94-62.23l-.46-.34A386.84 386.84 0 0 1 401.57 494C370 459.78 353 427.93 351 399.35a16 16 0 1 1 31.92-2.26c3 43 60.8 96.05 83.11 113.11 88.39 62.29 116.12 57 120.79 55.29l.54-.22.4-.19a2.71 2.71 0 0 1 .27-.16l.16-.11a16 16 0 0 1 30.32 10.05c-.65 2.43-4.67 14.86-20.75 20.7a50.63 50.63 0 0 1-17.5 2.85zM159.9 307.48h-.46c-39.51-.19-66-14.57-67.16-15.18a16 16 0 0 1-1.62-27 174.1 174.1 0 0 1 40.92-22 92.35 92.35 0 0 1 80.54 7.81l15.19 9.23a16 16 0 0 1-2.52 28.66l-31.45 12.2a92.13 92.13 0 0 1-33.44 6.28zM140.84 274a131 131 0 0 0 18.76 1.43 58.77 58.77 0 0 0 20.75-3.62 60.16 60.16 0 0 0-37.62 1.48zM287.63 250.26h-21.17a16 16 0 1 1 0-32h21.17a16 16 0 0 1 0 32zM796 744.7c-50.26 0-102.77-13.35-153.68-39.29C595.77 681.71 567 656 565.79 655a16 16 0 0 1 21.39-23.8c.27.24 27.44 24.38 70.47 46.17C696.72 697.1 757.39 719 824.58 711a96.44 96.44 0 0 0 39.64-13.4c14.41-8.9 21-18 19.57-27.2-1.13-7.21-7.07-13-14.79-14.47l-119.6-22.34a16 16 0 1 1 5.89-31.45l119.59 22.36c21 3.93 37.31 20.41 40.53 41 2 13 .26 38-34.38 59.36a128.16 128.16 0 0 1-52.68 18A275.54 275.54 0 0 1 796 744.7zM407.25 813.47a16 16 0 0 1-4.46-31.37l68.09-19.79 16.94-99.45a16 16 0 0 1 31.55 5.38l-18.62 109.33a16 16 0 0 1-11.31 12.68l-77.72 22.58a16.1 16.1 0 0 1-4.47.64z" fill="#000000" opacity="1" data-original="#000000" class=""></path><path d="M456.35 863.74a15.8 15.8 0 0 1-5.84-1.11 16 16 0 0 1-9.05-20.74L470.08 769a16 16 0 0 1 27-4.57l38.58 44.91a16 16 0 0 1-24.27 20.85l-21.27-24.76-18.9 48.13a16 16 0 0 1-14.87 10.18zM308.79 788.33a16 16 0 0 1-4.46-31.33l68.09-19.8 12.92-75.82a16 16 0 0 1 31.54 5.38l-14.59 85.7a16 16 0 0 1-11.78 12.81l-77.25 22.43a16.08 16.08 0 0 1-4.47.63z" fill="#000000" opacity="1" data-original="#000000" class=""></path><path d="M357.87 838.61A16 16 0 0 1 343 816.75l28.6-72.85a16 16 0 0 1 27-4.58l37 43a16 16 0 1 1-24.27 20.85l-19.65-22.86-18.9 48.13a16 16 0 0 1-14.91 10.17z" fill="#000000" opacity="1" data-original="#000000" class=""></path></g></svg>