<svg xmlns="http://www.w3.org/2000/svg" version="1.1" xmlns:xlink="http://www.w3.org/1999/xlink" width="512" height="512" x="0" y="0" viewBox="0 0 512 512.075" style="enable-background:new 0 0 512 512" xml:space="preserve" class=""><g><path d="M179.3 409.508a8.533 8.533 0 0 0-8.53 8.535v8.531a33.986 33.986 0 0 0 22.082 31.98 33.998 33.998 0 0 0 37.652-9.64 33.992 33.992 0 0 0 37.648 9.64 33.98 33.98 0 0 0 22.082-31.98v-8.531a8.533 8.533 0 1 0-17.066 0v8.531c0 9.426-7.64 17.067-17.066 17.067-9.426 0-17.067-7.641-17.067-17.067v-27.203a21.14 21.14 0 0 0 7.938-5.191l12.773-13.657a17.097 17.097 0 0 0 3.477-18.695 21.267 21.267 0 0 0-19.93-12.055h-25.582a21.261 21.261 0 0 0-19.926 12.055 17.111 17.111 0 0 0 3.469 18.695l12.789 13.657a21.098 21.098 0 0 0 7.926 5.191v27.203c0 9.426-7.64 17.067-17.067 17.067-9.425 0-17.066-7.641-17.066-17.067v-8.531a8.534 8.534 0 0 0-8.535-8.535zm34.126-40.852c.101-.398 1.379-1.816 4.285-1.816h25.582c2.91 0 4.184 1.418 3.992 2.02l-12.773 13.652a6.838 6.838 0 0 1-8.008 0zM122.68 320.656c15.187-5.937 27.273-6.64 35.949-2.054a26.523 26.523 0 0 1 12.34 15.949 8.531 8.531 0 0 0 10.113 6.367 8.534 8.534 0 0 0 6.563-9.988 43.637 43.637 0 0 0-20.758-27.266c-13.278-7.144-30.235-6.777-50.426 1.094a8.54 8.54 0 0 0-4.844 11.058 8.537 8.537 0 0 0 11.063 4.84zM271.387 341.055a8.553 8.553 0 0 0 6.422-1.188 8.558 8.558 0 0 0 3.703-5.383 26.3 26.3 0 0 1 12.164-15.796c8.676-4.676 20.828-4.004 36.117 1.96a8.533 8.533 0 0 0 11.059-4.84 8.533 8.533 0 0 0-4.84-11.058c-20.184-7.875-37.145-8.242-50.426-1.098a43.641 43.641 0 0 0-20.758 27.27 8.543 8.543 0 0 0 1.176 6.426 8.543 8.543 0 0 0 5.383 3.707zm0 0" fill="#000000" opacity="1" data-original="#000000" class=""></path><path d="M8.637 332.707a189.36 189.36 0 0 1 23.234 1.457 146.26 146.26 0 0 0-6.168 41.211v.074a86.53 86.53 0 0 0-21.8 9.89 8.54 8.54 0 0 0-3.848 7.669 8.529 8.529 0 0 0 4.757 7.137 8.54 8.54 0 0 0 8.56-.602 63.768 63.768 0 0 1 13.714-6.61 109.821 109.821 0 0 0 8.82 29.985 60.734 60.734 0 0 0-27.27 46.324c0 26.317 26.157 42.664 68.266 42.664a88.702 88.702 0 0 0 53.809-14.18 334.358 334.358 0 0 0 99.793 14.18 334.314 334.314 0 0 0 99.789-14.18 88.702 88.702 0 0 0 53.809 14.18c42.109 0 68.265-16.347 68.265-42.664a60.723 60.723 0 0 0-27.27-46.324 109.821 109.821 0 0 0 8.821-29.984 63.886 63.886 0 0 1 13.719 6.609 8.532 8.532 0 0 0 8.554.602 8.54 8.54 0 0 0 4.762-7.137 8.534 8.534 0 0 0-3.851-7.668 86.53 86.53 0 0 0-21.801-9.89v-.075a145.98 145.98 0 0 0-6.168-41.21 190.135 190.135 0 0 1 23.234-1.458 8.533 8.533 0 1 0 0-17.066c-9.738.004-19.465.691-29.11 2.054a189.31 189.31 0 0 0-12.695-25.46c5.614-18.223 27.606-94.891 8.649-121.036a21.213 21.213 0 0 0-17.785-9.156 89.71 89.71 0 0 0-36.242 10.75c-21.832-30.86-60.329-52.54-104.207-59.504a154.199 154.199 0 0 0-4.352-34.496 25.934 25.934 0 0 1 9.11-25.297c10.644-7.172 28.027 3.926 35 9.024a25.599 25.599 0 0 0 25.55 2.886 25.59 25.59 0 0 0 15.172-20.761 25.6 25.6 0 0 0-10.512-23.465c-46.836-34.278-81.144-18.617-93.777-10.258-25.328 18.062-37.266 49.621-30.23 79.926a104.118 104.118 0 0 1 2.93 21.117c-47.958 5.086-90.622 27.64-114.028 60.77a89.49 89.49 0 0 0-36.004-10.692 21.283 21.283 0 0 0-17.824 9.168c-18.883 26.035 3 102.48 8.597 120.676a190.273 190.273 0 0 0-12.875 25.8 208.998 208.998 0 0 0-29.097-2.046 8.534 8.534 0 1 0 0 17.066zm17.066 136.535c0-19.207 23.625-42.668 51.2-42.668 27.574 0 51.199 23.461 51.199 42.668 0 12.422-11.477 19.555-26.364 23 .489-1.941.746-3.933.766-5.933v-17.067a8.534 8.534 0 1 0-17.067 0v17.067c0 4.71-3.82 8.53-8.535 8.53-4.71 0-8.535-3.82-8.535-8.53v-17.067a8.533 8.533 0 1 0-17.066 0v17.067c.02 2 .277 3.992.765 5.933-14.886-3.445-26.363-10.578-26.363-23zm409.598 0c0 12.422-11.477 19.555-26.36 23a25.55 25.55 0 0 0 .762-5.933v-17.067a8.534 8.534 0 1 0-17.066 0v17.067c0 4.71-3.82 8.53-8.535 8.53a8.532 8.532 0 0 1-8.532-8.53v-17.067a8.534 8.534 0 1 0-17.066 0v17.067c.02 2 .273 3.992.762 5.933-14.887-3.445-26.364-10.578-26.364-23 0-19.207 23.625-42.668 51.2-42.668 27.574 0 51.199 23.469 51.199 42.668zM223.51 86.785c-5.48-23.344 3.653-47.691 23.134-61.668 11.925-7.887 37.406-17.11 74.226 9.84a8.536 8.536 0 0 1-10.07 13.785c-21.192-15.496-40.574-18.836-54.567-9.426a42.88 42.88 0 0 0-16.191 43.512 137.56 137.56 0 0 1 3.89 28.527c-4.449-.304-8.917-.515-13.43-.515-1.21 0-2.405.082-3.612.105a120.893 120.893 0 0 0-3.38-24.16zm6.993 41.121c49.746 0 95.496 20.543 119.476 52.95-11.437 6.472-24.058 14.488-38.035 24.285a198.99 198.99 0 0 0-162.71-.075c-14.048-9.8-26.715-17.816-38.173-24.28 23.918-32.364 69.649-52.88 119.442-52.88zM68.027 290.383c-15.64-47.895-21.117-96.852-12.203-109.149a4.379 4.379 0 0 1 4.012-2.125 82.628 82.628 0 0 1 34.316 11.832c.075.047.11.121.184.168.277.137.562.258.851.364a438.035 438.035 0 0 1 48.204 30.355 8.51 8.51 0 0 0 8.566.754 182.236 182.236 0 0 1 157.234.074 8.507 8.507 0 0 0 8.61-.754c38.219-27.195 68.703-42.793 83.625-42.793a4.342 4.342 0 0 1 3.965 2.106c8.96 12.36 3.46 61.48-12.25 109.5a8.518 8.518 0 0 0 .875 7.18 176.143 176.143 0 0 1 12.07 22.984 150.774 150.774 0 0 0-52.703 22.07c-3.676 2.852-4.387 8.121-1.602 11.848s8.043 4.535 11.817 1.816a140.424 140.424 0 0 1 48.582-19.566 131.604 131.604 0 0 1 5.879 34.07 248.22 248.22 0 0 0-42.489-4.277 8.534 8.534 0 1 0 0 17.066 237.915 237.915 0 0 1 41.852 4.469 93.71 93.71 0 0 1-7.27 26.277 69.126 69.126 0 0 0-26.05-5.144c-38.45 0-68.266 32.11-68.266 59.734a34.731 34.731 0 0 0 2.941 14.203 324.638 324.638 0 0 1-88.273 11.395 324.686 324.686 0 0 1-88.277-11.395 34.731 34.731 0 0 0 2.941-14.203c0-27.625-29.816-59.734-68.266-59.734a69.126 69.126 0 0 0-26.05 5.144 93.71 93.71 0 0 1-7.27-26.277 237.96 237.96 0 0 1 41.856-4.469c4.71 0 8.53-3.82 8.53-8.531a8.533 8.533 0 0 0-8.53-8.535 248.186 248.186 0 0 0-42.493 4.277 131.434 131.434 0 0 1 5.875-34.066 140.34 140.34 0 0 1 48.582 19.562 8.533 8.533 0 0 0 11.817-1.816 8.526 8.526 0 0 0-1.598-11.848 150.734 150.734 0 0 0-52.715-22.074 175.996 175.996 0 0 1 12.25-23.316 8.524 8.524 0 0 0 .871-7.176zm0 0" fill="#000000" opacity="1" data-original="#000000" class=""></path></g></svg>