<svg width="62" height="61" viewBox="0 0 62 61" fill="none" xmlns="http://www.w3.org/2000/svg">
<path fill-rule="evenodd" clip-rule="evenodd" d="M24.157 31.7709C24.3968 31.7709 24.6268 31.677 24.7964 31.5101C24.9659 31.3433 25.0612 31.1173 25.0612 30.8812V27.3229C25.0612 27.087 24.9659 26.8607 24.7964 26.6939C24.6268 26.527 24.3968 26.4333 24.157 26.4333C23.9172 26.4333 23.6873 26.527 23.5177 26.6939C23.3481 26.8607 23.2529 27.087 23.2529 27.3229V30.8812C23.2529 31.1173 23.3481 31.3433 23.5177 31.5101C23.6873 31.677 23.9172 31.7709 24.157 31.7709ZM38.6238 26.4333C38.3839 26.4333 38.1539 26.527 37.9843 26.6939C37.8147 26.8607 37.7195 27.087 37.7195 27.3229V30.8812C37.7195 31.1173 37.8147 31.3433 37.9843 31.5101C38.1539 31.677 38.3839 31.7709 38.6238 31.7709C38.8634 31.7709 39.0935 31.677 39.263 31.5101C39.4326 31.3433 39.5278 31.1173 39.5278 30.8812V27.3229C39.5278 27.087 39.4326 26.8607 39.263 26.6939C39.0935 26.527 38.8634 26.4333 38.6238 26.4333Z" fill="#FFFFFF"/>
<path fill-rule="evenodd" clip-rule="evenodd" d="M31.3903 46.0041C24.9582 46.0041 19.4446 42.5545 17.1552 37.6742L19.0178 37.0639C19.2456 36.9892 19.434 36.8288 19.5415 36.6177C19.649 36.4063 19.6668 36.1617 19.591 35.9376C19.5152 35.7134 19.3521 35.5282 19.1374 35.4224C18.9227 35.3166 18.6741 35.2992 18.4464 35.3736L16.5277 36.0034C16.2015 34.9347 16.031 33.826 16.0214 32.7103L18.4445 33.5055C18.6693 33.5692 18.9104 33.5451 19.1175 33.4378C19.3244 33.3307 19.4813 33.1486 19.5551 32.9303C19.6289 32.7119 19.614 32.474 19.5136 32.2663C19.4131 32.0583 19.2348 31.8966 19.016 31.8155L16.1697 30.8831C16.3633 29.5928 16.7695 28.3423 17.3722 27.1806C17.4424 27.0458 17.4762 26.8955 17.4705 26.7441C17.4648 26.5927 17.4198 26.4453 17.3397 26.3159C15.9056 23.987 15.1371 21.2577 15.1154 18.42C15.1027 16.696 15.5096 14.9648 15.7664 14.0468C18.1534 14.4916 22.752 17.0358 24.7303 19.8985C24.8427 20.0604 25.006 20.1815 25.1952 20.2432C25.3843 20.305 25.5889 20.3038 25.7773 20.2401C29.4169 19.0152 33.3669 19.014 37.0072 20.2365C37.1951 20.3008 37.3997 20.3021 37.5888 20.2404C37.7776 20.1786 37.9406 20.0571 38.0522 19.8949C40.0306 17.034 44.6273 14.4898 47.0143 14.0468C47.2713 14.9648 47.678 16.696 47.6653 18.42C47.6436 21.2595 46.8751 23.987 45.4392 26.3124C45.3592 26.442 45.3143 26.5898 45.3084 26.7414C45.3028 26.8931 45.3366 27.0437 45.4067 27.1788C46.0217 28.362 46.4157 29.6038 46.611 30.8831L43.763 31.8155C43.5352 31.8899 43.3467 32.0503 43.2395 32.2617C43.1319 32.4727 43.1139 32.7174 43.1898 32.9415C43.2655 33.1657 43.4289 33.3512 43.6434 33.4567C43.8582 33.5625 44.1065 33.5802 44.3344 33.5055L46.7576 32.7103C46.748 33.826 46.5775 34.9347 46.2514 36.0034L44.3344 35.3736C44.1065 35.2992 43.8582 35.3166 43.6434 35.4224C43.4289 35.5282 43.2655 35.7134 43.1898 35.9376C43.1139 36.1617 43.1319 36.4063 43.2395 36.6177C43.3467 36.8288 43.5352 36.9892 43.763 37.0639L45.6255 37.6742C43.3343 42.5545 37.8225 46.0041 31.3903 46.0041ZM49.7594 37.153L47.9673 36.5659C48.347 35.3169 48.5696 34.0127 48.5696 32.6603C48.5696 32.4807 48.546 32.3047 48.5389 32.1251L49.7594 31.7264C49.9872 31.6517 50.1757 31.4913 50.2833 31.2802C50.3905 31.0688 50.4085 30.8242 50.3326 30.6001C50.2569 30.376 50.0939 30.1907 49.879 30.0849C49.6645 29.9791 49.4159 29.9616 49.188 30.0362L48.3436 30.3137C48.1359 29.1033 47.7642 27.9257 47.2388 26.8123C48.6954 24.252 49.4649 21.3684 49.4739 18.4342C49.4956 15.6231 48.5606 12.9135 48.5206 12.8014C48.4592 12.6262 48.3439 12.4742 48.1905 12.3665C48.0373 12.2587 47.8538 12.2006 47.6653 12.2C44.9854 12.2 39.5551 15.1125 36.9638 18.3506C33.3297 17.2712 29.4526 17.2719 25.8189 18.3524C23.2258 15.1143 17.7935 12.2 15.1136 12.2C14.9255 12.2009 14.7424 12.2593 14.5895 12.367C14.4366 12.4747 14.3215 12.6265 14.2601 12.8014C14.2203 12.9135 13.2836 15.6231 13.3071 18.4342C13.316 21.3682 14.0846 24.2516 15.5404 26.8123C15.014 27.9254 14.6423 29.1031 14.4355 30.3137L13.591 30.0362C13.3632 29.9616 13.1146 29.9791 12.8999 30.0849C12.6853 30.1907 12.5221 30.376 12.4463 30.6001C12.3705 30.8242 12.3883 31.0688 12.4959 31.2802C12.6034 31.4913 12.7917 31.6517 13.0195 31.7264L14.2402 32.1251C14.2329 32.3047 14.2094 32.4807 14.2094 32.6603C14.2094 34.0127 14.4319 35.3169 14.8116 36.5659L13.0195 37.153C12.7917 37.2274 12.6034 37.3878 12.4959 37.5992C12.3883 37.8103 12.3705 38.0549 12.4463 38.279C12.5221 38.5032 12.6853 38.6887 12.8999 38.7942C13.1146 38.9 13.3632 38.9177 13.591 38.843L15.4355 38.2382C17.9635 43.8212 24.1571 47.7834 31.3903 47.7834C38.6239 47.7834 44.8155 43.8212 47.3435 38.2382L49.188 38.843C49.4159 38.9177 49.6645 38.9 49.879 38.7942C50.0939 38.6887 50.2569 38.5032 50.3326 38.279C50.4085 38.0549 50.3905 37.8103 50.2833 37.5992C50.1757 37.3878 49.9872 37.2274 49.7594 37.153Z" fill="white"/>
<path fill-rule="evenodd" clip-rule="evenodd" d="M38.121 37.2579C36.6581 38.2168 34.6853 38.731 32.2927 38.8411V34.8078L33.8371 33.2901C33.9639 33.1657 34.0501 33.0071 34.0851 32.8345C34.1201 32.6615 34.1022 32.4825 34.0337 32.3196C33.9651 32.1571 33.8489 32.018 33.7001 31.9204C33.551 31.8225 33.3758 31.7706 33.197 31.7709H29.5802C29.4017 31.7719 29.2274 31.8243 29.0793 31.9225C28.9311 32.0204 28.8157 32.1592 28.7475 32.3218C28.6793 32.484 28.6614 32.6625 28.6959 32.8348C28.7305 33.0071 28.8161 33.1657 28.9419 33.2901L30.4844 34.8078V38.8411C28.0938 38.731 26.1191 38.2168 24.6579 37.2579C24.5592 37.1929 24.4483 37.1478 24.3319 37.1252C24.2154 37.1023 24.0955 37.1026 23.979 37.1255C23.8626 37.1484 23.7518 37.1935 23.6531 37.2585C23.5545 37.3235 23.4698 37.407 23.4038 37.5043C23.3379 37.6013 23.2922 37.7105 23.2691 37.8249C23.246 37.9396 23.2461 38.0576 23.2693 38.1723C23.2926 38.2867 23.3386 38.3955 23.4046 38.4928C23.4707 38.5898 23.5555 38.6731 23.6543 38.7381C25.6037 40.0191 28.2077 40.6666 31.3884 40.6666C34.5712 40.6666 37.1752 40.0191 39.1245 38.7381C39.2234 38.6734 39.3083 38.5901 39.3743 38.4931C39.4404 38.3958 39.4862 38.287 39.5095 38.1726C39.5324 38.0579 39.5324 37.9402 39.5095 37.8255C39.4862 37.7111 39.4401 37.6022 39.374 37.5049C39.3086 37.4076 39.224 37.3241 39.1254 37.2591C39.0268 37.1938 38.9162 37.1484 38.7996 37.1255C38.6833 37.1026 38.5634 37.1023 38.4468 37.1252C38.3306 37.1478 38.2196 37.1929 38.121 37.2579Z" fill="white"/>
</svg>
