<svg width="67" height="62" viewBox="0 0 67 62" fill="none" xmlns="http://www.w3.org/2000/svg">
<path fill-rule="evenodd" clip-rule="evenodd" d="M33.5194 38.3219L32.4936 38.9549L31.4657 38.3219C32.1446 38.2062 32.8406 38.2062 33.5194 38.3219ZM33.4706 40.5263L35.9663 38.9856C36.0865 38.9115 36.1877 38.8132 36.2621 38.6985C36.3364 38.5838 36.3827 38.4552 36.3967 38.3219C36.4108 38.1886 36.3931 38.0543 36.3441 37.9282C36.2956 37.802 36.2172 37.6876 36.1147 37.5931C35.2745 36.8193 34.0568 36.425 32.4936 36.425C30.9302 36.425 29.7108 36.8193 28.8705 37.5949C28.7675 37.6892 28.6885 37.8032 28.6393 37.9291C28.5901 38.0553 28.572 38.1898 28.5862 38.3231C28.6005 38.4564 28.6467 38.5851 28.7216 38.6998C28.7965 38.8141 28.8981 38.9121 29.0191 38.9856L31.5165 40.5263V43.6114C28.9311 43.4992 26.7991 42.9765 25.2182 42.0019C25.1116 41.9355 24.9919 41.8897 24.866 41.8664C24.74 41.8432 24.6104 41.8435 24.4845 41.8667C24.3586 41.89 24.239 41.9362 24.1325 42.0025C24.026 42.0688 23.9347 42.1541 23.864 42.2533C23.7926 42.3519 23.7429 42.4625 23.7179 42.5788C23.6928 42.6953 23.6928 42.8153 23.7178 42.9316C23.7428 43.0481 23.7925 43.1588 23.8639 43.2574C23.9352 43.356 24.0269 43.4406 24.1336 43.5063C26.2402 44.8083 29.0542 45.4667 32.4936 45.4667C35.9328 45.4667 38.7468 44.8083 40.8516 43.5063C40.9584 43.4406 41.0499 43.3556 41.1212 43.2571C41.1926 43.1585 41.2425 43.0478 41.2676 42.9313C41.2928 42.8147 41.2928 42.695 41.268 42.5785C41.2428 42.4619 41.1933 42.3512 41.1222 42.2524C41.0509 42.1535 40.9594 42.0688 40.8529 42.0025C40.746 41.9365 40.6264 41.8906 40.5005 41.8673C40.3749 41.8441 40.2452 41.8441 40.1193 41.867C39.9933 41.8903 39.8737 41.9358 39.7668 42.0019C38.188 42.9765 36.054 43.4992 33.4706 43.6114V40.5263ZM26.6311 32.8082C26.8902 32.8082 27.1387 32.713 27.322 32.5435C27.5052 32.3739 27.6081 32.1439 27.6081 31.9042V28.2874C27.6081 28.0477 27.5052 27.8177 27.322 27.6481C27.1387 27.4786 26.8902 27.3833 26.6311 27.3833C26.3719 27.3833 26.1234 27.4786 25.9401 27.6481C25.7569 27.8177 25.654 28.0477 25.654 28.2874V31.9042C25.654 32.1439 25.7569 32.3739 25.9401 32.5435C26.1234 32.713 26.3719 32.8082 26.6311 32.8082ZM37.379 28.3037L37.4493 31.9204C37.4543 32.1572 37.5595 32.3823 37.7424 32.5481C37.925 32.7137 38.1706 32.8067 38.4265 32.8063H38.4419C38.5702 32.8045 38.6972 32.7794 38.8148 32.7323C38.9327 32.6848 39.0392 32.6166 39.1283 32.5314C39.2178 32.4461 39.2878 32.3454 39.335 32.235C39.3823 32.1247 39.4057 32.0065 39.4034 31.8878L39.333 28.2712C39.3233 27.7721 38.8349 27.4556 38.3364 27.3833C38.0778 27.388 37.8315 27.4876 37.652 27.6602C37.4724 27.8328 37.3743 28.0642 37.379 28.3037Z" fill="white"/>
<path fill-rule="evenodd" clip-rule="evenodd" d="M46.9975 34.0885C46.4679 27.9132 44.4257 20.593 40.3082 16.376C46.4367 18.9438 51.0564 24.0487 51.0564 28.2875C51.0564 32.1194 49.1472 33.4719 46.9975 34.0885ZM32.4936 47.275C26.6995 47.275 19.7915 45.5498 19.7915 37.3293C19.7915 29.9548 22.8967 14.725 32.4936 14.725C42.0904 14.725 45.1959 29.9548 45.1959 37.3293C45.1959 45.5498 38.2878 47.275 32.4936 47.275ZM13.929 28.2875C13.929 24.0487 18.5506 18.9438 24.6809 16.376C20.5615 20.593 18.5213 27.9132 17.9898 34.0885C15.8402 33.4719 13.929 32.1194 13.929 28.2875ZM53.0124 28.2875C53.0124 21.5117 43.351 12.9166 32.4936 12.9166C21.6363 12.9166 11.9749 21.5117 11.9749 28.2875C11.9749 33.9766 15.7835 35.4538 17.8725 35.9494C17.853 36.4179 17.8374 36.8844 17.8374 37.3293C17.8374 44.9078 23.0433 49.0832 32.4936 49.0832C41.946 49.0832 47.1499 44.9078 47.1499 37.3293C47.1499 36.8844 47.1305 36.4179 47.1147 35.9494C49.2038 35.4538 53.0124 33.9766 53.0124 28.2875Z" fill="white"/>
</svg>
