<svg xmlns="http://www.w3.org/2000/svg" version="1.1" xmlns:xlink="http://www.w3.org/1999/xlink" width="512" height="512" x="0" y="0" viewBox="0 0 24 24" style="enable-background:new 0 0 512 512" xml:space="preserve" class=""><g><path d="M12.159 24c-4.794 0-9.516-3.114-10.827-7.3-.436-1.39-.44-2.384-.013-3.037.32-.49.862-.77 1.656-.855 1.054-.113 1.957.39 2.479 1.384.203.389.868 1.462 1.623 2.294a.459.459 0 0 0 .377.14.396.396 0 0 0 .306-.19c.152-.262.288-.538.424-.811.672-1.357 1.444-2.89 3.996-2.664.078-.481.24-.998.481-1.561.902-2.103 3.393-3.646 5.453-3.368 2.687.364 4.688 2.496 4.867 5.185.345 5.197-4.238 10.214-9.809 10.736-.336.032-.676.047-1.013.047zM3.272 13.792c-.062 0-.124.004-.188.011-.485.053-.779.183-.928.409-.172.262-.288.855.131 2.19 1.27 4.055 6.118 7 10.792 6.556 5.055-.474 9.216-4.995 8.904-9.674-.147-2.209-1.794-3.961-4.004-4.26-1.602-.217-3.671 1.077-4.398 2.771-.915 2.132-.512 3.214 1.796 4.823a.5.5 0 1 1-.572.82c-1.676-1.169-2.525-2.223-2.66-3.476-1.932-.19-2.433.829-3.065 2.107-.146.293-.292.588-.456.87a1.381 1.381 0 0 1-1.064.681 1.447 1.447 0 0 1-1.222-.462 14.09 14.09 0 0 1-1.77-2.502c-.3-.574-.736-.864-1.296-.864z" fill="#000000" opacity="1" data-original="#000000" class=""></path><circle cx="17" cy="13" r="1" fill="#000000" opacity="1" data-original="#000000" class=""></circle><path d="M9.75 14.5a.49.49 0 0 1-.193-.039c-1.849-.774-2.977-2.567-2.874-4.568s1.408-3.67 3.326-4.251l1.065-.323a3.263 3.263 0 0 0 2.057-1.837 3.263 3.263 0 0 0-.078-2.757.5.5 0 0 1 .895-.447c.564 1.129.602 2.441.103 3.6s-1.478 2.033-2.686 2.399L10.3 6.6c-1.833.554-2.555 2.091-2.618 3.344-.064 1.253.496 2.856 2.262 3.595a.5.5 0 0 1-.194.961z" fill="#000000" opacity="1" data-original="#000000" class=""></path></g></svg>