<svg xmlns="http://www.w3.org/2000/svg" version="1.1" xmlns:xlink="http://www.w3.org/1999/xlink" width="512" height="512" x="0" y="0" viewBox="0 0 100 100" style="enable-background:new 0 0 512 512" xml:space="preserve" class=""><g><g fill-rule="evenodd" clip-rule="evenodd"><path d="M50.33 6.674c-4.656 0-8.939 3.007-10.09 7.517-.221.863-.326 1.717-.328 2.55-.003 1.433 1.55 2.319 2.843 1.698 2.228-1.069 4.67-1.678 7.245-1.678s5.017.61 7.244 1.679c1.293.62 2.846-.266 2.843-1.7-.003-1.63-.403-3.346-1.293-5.053-1.63-3.125-4.94-5.013-8.465-5.013zM46.67 22.427c-.39-.87-1.4-1.39-2.39-1.09-.96.29-1.901.65-2.821 1.09-3.56 1.66-6.751 4.35-9.371 7.781-2.06 2.7-3.761 5.871-5.021 9.352l-15.072-6.401v-7.566a3.165 3.165 0 0 0-6.331 0v9.396c0 1.13.6 2.17 1.58 2.74l18.173 7.941c-.37 1.96-.61 4.001-.7 6.091l-14.132 7.061c-.5.24-.92.61-1.22 1.07l-6.332 9.502a3.16 3.16 0 1 0 5.26 3.51l5.872-8.79 10.782-5.392c.39 3.42 1.18 6.661 2.3 9.662-.21.08-.41.19-.59.31l-13.322 9.371c-.55.39-.96.95-1.18 1.59l-3.16 9.502c-.27.8-.21 1.67.17 2.42.37.75 1.03 1.32 1.83 1.59.8.26 1.67.2 2.42-.17a3.21 3.21 0 0 0 1.59-1.84l2.83-8.511 12.142-8.542c.65 1.1 1.35 2.16 2.11 3.15 3.211 4.222 7.313 7.323 11.904 8.783 1.41.448 2.849-.631 2.849-2.111V23.227c0-.29-.06-.56-.17-.8zm50.297 46.967-6.331-9.501c-.3-.46-.72-.83-1.22-1.07l-14.082-5.171c-.01-2.75-.27-5.431-.75-7.982l18.172-7.94c.98-.57 1.58-1.61 1.58-2.741v-9.396a3.165 3.165 0 0 0-6.33 0v7.566l-15.073 6.41c-1.26-3.49-2.96-6.65-5.02-9.35-2.61-3.441-5.811-6.121-9.372-7.792-.92-.43-1.86-.8-2.82-1.09-.99-.3-2 .22-2.39 1.09-.11.25-.17.52-.17.81v60.689c0 1.48 1.438 2.56 2.848 2.11 4.582-1.46 8.683-4.56 11.903-8.781.76-.99 1.46-2.04 2.11-3.15l12.142 8.55 2.83 8.502c.271.8.841 1.46 1.591 1.83.75.38 1.63.44 2.42.18.8-.27 1.46-.84 1.83-1.59.38-.75.44-1.63.17-2.42l-3.16-9.502c-.22-.64-.63-1.2-1.18-1.59l-13.322-9.371c-.18-.12-.38-.23-.59-.31.96-2.57 1.68-5.341 2.1-8.232l10.982 3.961 5.87 8.791a3.16 3.16 0 0 0 4.391.88c1.45-.97 1.84-2.93.87-4.39z" fill="#000000" opacity="1" data-original="#000000" class=""></path></g></g></svg>