<svg xmlns="http://www.w3.org/2000/svg" version="1.1" xmlns:xlink="http://www.w3.org/1999/xlink" width="512" height="512" x="0" y="0" viewBox="0 0 66 66" style="enable-background:new 0 0 512 512" xml:space="preserve" class=""><g><path d="M63.38 2.44c-.48-.48-1.27-.48-1.75 0l-8.05 8.04c-1.86-1.08-4.28-.84-5.87.75l-.67.67c-2.15-1.78-5.34-1.69-7.35.33l-7.51 7.51-12.67 12.68-.37-.37c-1.56-1.56-4.29-1.57-5.86 0-.78.78-1.21 1.82-1.21 2.93s.43 2.15 1.21 2.93l3.74 3.74-6.59 6.59-1.11-1.11c-1.56-1.56-4.29-1.56-5.86 0-1.61 1.61-1.61 4.24 0 5.86l9.74 9.74c.78.78 1.82 1.21 2.93 1.21s2.15-.43 2.93-1.21 1.21-1.82 1.21-2.93-.43-2.15-1.21-2.93l-1.2-1.2 6.59-6.59 2.95 2.95c.78.78 1.82 1.21 2.93 1.21s2.15-.43 2.93-1.21 1.21-1.82 1.21-2.93a4.1 4.1 0 0 0-1.12-2.82l20.2-20.2c2-2 2.1-5.16.36-7.31l.67-.67c1.59-1.59 1.83-4.01.75-5.87l8.05-8.04c.49-.49.49-1.27 0-1.75zM17.31 60.96c-.63.63-1.72.63-2.35 0l-9.74-9.74a1.66 1.66 0 0 1 0-2.35c.31-.31.73-.49 1.18-.49.44 0 .86.17 1.17.49l9.74 9.74c.31.31.49.73.49 1.17 0 .45-.17.87-.49 1.18zm32.16-47.98c.93-.93 2.44-.93 3.36 0 .93.93.93 2.44 0 3.36l-.63.63-3.36-3.36zM16.11 53.91l-3.93-3.93 6.58-6.58 3.93 3.93zm15.4-3.64c-.63.63-1.72.63-2.35 0l-3.83-3.83-5.68-5.68-4.62-4.62a1.657 1.657 0 0 1 0-2.35 1.657 1.657 0 0 1 2.35 0l14.13 14.13c.31.31.49.73.49 1.17-.01.45-.18.87-.49 1.18zM51.8 24.32l-20.19 20.2-10.35-10.35 2.2-2.2.88.88a1.258 1.258 0 0 0 1.76 0c.48-.48.48-1.27 0-1.75l-.88-.88 3.05-3.05 2.64 2.63a1.258 1.258 0 0 0 1.76 0c.48-.48.48-1.27 0-1.75l-2.64-2.63 3.05-3.05 1.76 1.76a1.258 1.258 0 0 0 1.76 0c.48-.48.48-1.27 0-1.75l-1.76-1.76 3.05-3.05 2.64 2.64a1.258 1.258 0 0 0 1.76 0c.48-.48.48-1.27 0-1.75l-2.64-2.64 1.83-1.83a3 3 0 0 1 4.24 0l.51.51 5.12 5.12.47.47a3.006 3.006 0 0 1-.02 4.23z" fill="#000000" opacity="1" data-original="#000000" class=""></path></g></svg>