<svg width="58" height="58" viewBox="0 0 58 58" fill="none" xmlns="http://www.w3.org/2000/svg">
<path d="M55.1158 28.9228C55.1158 28.5114 54.7772 28.1729 54.3658 28.1729L47.4705 28.1686C47.1362 26.9086 45.9963 25.9744 44.6335 25.9744L44.0592 25.9744C43.9007 24.2902 42.495 22.9617 40.768 22.966H34.3311L23.4674 22.9703L23.4674 22.6531C23.4674 21.3161 22.3018 20.1418 20.9561 20.1418C20.2876 20.1418 19.6576 20.4033 19.1819 20.879C18.7062 21.3546 18.4448 21.9846 18.4448 22.6531L18.4448 25.8587L12.7965 25.8587L12.7965 24.9073C12.7965 23.5702 11.6266 22.4003 10.2852 22.396C8.9053 22.396 7.77821 23.5231 7.77393 24.9073V33.2555C7.77393 33.924 8.03534 34.554 8.51103 35.0297C8.98672 35.5053 9.61669 35.7668 10.2852 35.7668C10.9538 35.7668 11.5837 35.5053 12.0594 35.0297C12.5351 34.554 12.7965 33.924 12.7965 33.2555L12.7965 32.2269L18.4448 32.2269L18.4448 34.7554C18.4448 35.4239 18.7062 36.0539 19.1819 36.5296C19.6576 37.0053 20.2876 37.2667 20.9561 37.2667C21.6247 37.2667 22.2546 37.0053 22.7303 36.5296C23.1801 36.0806 23.4409 35.4764 23.4588 34.8411L40.7722 34.8411C42.4864 34.8411 43.8835 33.5297 44.0592 31.8627H44.6335C45.9963 31.8627 47.1362 30.9284 47.4705 29.6685L54.3658 29.6728C54.7858 29.6728 55.1201 29.3385 55.1158 28.9228ZM10.2938 34.2583C9.75383 34.2583 9.28671 33.7912 9.28671 33.2512L9.28671 24.903C9.28657 24.7707 9.31253 24.6397 9.36309 24.5175C9.41366 24.3952 9.48783 24.2842 9.58138 24.1906C9.67492 24.0971 9.786 24.0229 9.90824 23.9723C10.0305 23.9218 10.1615 23.8958 10.2938 23.8959C10.5595 23.8959 10.8166 23.9988 11.0095 24.1916C11.198 24.3802 11.3052 24.633 11.3009 24.903L11.3009 33.2512C11.3009 33.5169 11.198 33.774 11.0095 33.9626C10.8166 34.1554 10.5638 34.2626 10.2938 34.2583ZM44.6378 27.4786C45.4349 27.4786 46.082 28.1257 46.0777 28.9185C46.0777 29.7156 45.4306 30.3628 44.6378 30.3585L44.0978 30.3585V27.4786L44.6378 27.4786ZM12.8008 30.7227V27.3543L18.4405 27.3543V30.7227L12.8008 30.7227ZM20.9604 35.7625C20.4204 35.7625 19.9533 35.2954 19.9533 34.7554L19.9533 31.4727L19.9533 26.6044L19.9533 22.6446C19.9529 22.5122 19.9787 22.3811 20.0292 22.2587C20.0797 22.1364 20.1538 22.0252 20.2474 21.9316C20.341 21.838 20.4522 21.7639 20.5746 21.7134C20.6969 21.6629 20.828 21.6371 20.9604 21.6375C21.0928 21.6371 21.2239 21.6629 21.3462 21.7134C21.4686 21.7639 21.5798 21.838 21.6734 21.9316C21.767 22.0252 21.8411 22.1364 21.8916 22.2587C21.9421 22.3811 21.9679 22.5122 21.9675 22.6446L21.9675 34.7554C21.9675 35.0211 21.8646 35.2782 21.6761 35.4668C21.4789 35.6553 21.2261 35.7625 20.9604 35.7625ZM40.7765 33.3369L23.4674 33.3412L23.4674 24.4702L25.353 24.4702L25.353 25.2244C25.3552 25.4238 25.4353 25.6144 25.5763 25.7554C25.7173 25.8964 25.9079 25.9766 26.1073 25.9787C26.5187 25.9787 26.8572 25.6401 26.8572 25.2287L26.8572 24.4745H29.4714L29.4757 26.7329C29.4778 26.9323 29.558 27.1229 29.6989 27.2639C29.8399 27.4049 30.0305 27.4851 30.2299 27.4872C30.6413 27.4872 30.9799 27.1486 30.9799 26.7372L30.9756 24.4788L33.5898 24.4788L33.5898 25.9873C33.5919 26.1866 33.672 26.3773 33.813 26.5182C33.954 26.6592 34.1446 26.7394 34.344 26.7415C34.7554 26.7415 35.094 26.403 35.094 25.9916V24.4831L37.7081 24.4831L37.7081 26.7458C37.7102 26.9452 37.7904 27.1358 37.9314 27.2768C38.0724 27.4178 38.263 27.4979 38.4624 27.5C38.8738 27.5 39.2123 27.1615 39.2123 26.7501V24.4873L40.7808 24.4873C41.2626 24.4876 41.7246 24.6792 42.0653 25.0199C42.406 25.3606 42.5976 25.8226 42.5979 26.3044L42.5979 26.7415L42.5979 31.1299L42.5979 31.5327C42.5932 32.0127 42.3993 32.4715 42.0582 32.8094C41.7172 33.1472 41.2566 33.3368 40.7765 33.3369Z" fill="white"/>
</svg>
