<svg width="20" height="20" viewBox="0 0 20 20" fill="none" xmlns="http://www.w3.org/2000/svg">
<circle cx="10" cy="10" r="10" fill="#A4D4A0"/>
<path fill-rule="evenodd" clip-rule="evenodd" d="M7.7926 10.4167C7.86995 10.4167 7.94414 10.3859 7.99884 10.3312C8.05353 10.2765 8.08426 10.2024 8.08426 10.125V8.95833C8.08426 8.88098 8.05353 8.80679 7.99884 8.75209C7.94414 8.69739 7.86995 8.66666 7.7926 8.66666C7.71524 8.66666 7.64106 8.69739 7.58636 8.75209C7.53166 8.80679 7.50093 8.88098 7.50093 8.95833V10.125C7.50093 10.2024 7.53166 10.2765 7.58636 10.3312C7.64106 10.3859 7.71524 10.4167 7.7926 10.4167ZM12.4593 8.66666C12.3819 8.66666 12.3077 8.69739 12.253 8.75209C12.1983 8.80679 12.1676 8.88098 12.1676 8.95833V10.125C12.1676 10.2024 12.1983 10.2765 12.253 10.3312C12.3077 10.3859 12.3819 10.4167 12.4593 10.4167C12.5366 10.4167 12.6108 10.3859 12.6655 10.3312C12.7202 10.2765 12.7509 10.2024 12.7509 10.125V8.95833C12.7509 8.88098 12.7202 8.80679 12.6655 8.75209C12.6108 8.69739 12.5366 8.66666 12.4593 8.66666Z" fill="white"/>
<path fill-rule="evenodd" clip-rule="evenodd" d="M10.1259 15.0833C8.05101 15.0833 6.27243 13.9523 5.53393 12.3522L6.13476 12.1521C6.20825 12.1276 6.26901 12.075 6.30369 12.0058C6.33837 11.9365 6.34412 11.8563 6.31968 11.7828C6.29523 11.7093 6.2426 11.6486 6.17335 11.6139C6.1041 11.5792 6.02391 11.5735 5.95043 11.5979L5.33151 11.8044C5.22627 11.454 5.17128 11.0905 5.16818 10.7247L5.94984 10.9854C6.02235 11.0063 6.10013 10.9984 6.16691 10.9632C6.23368 10.9281 6.28427 10.8684 6.30809 10.7968C6.3319 10.7252 6.3271 10.6472 6.29469 10.5791C6.26227 10.5109 6.20476 10.4579 6.13418 10.4313L5.21601 10.1256C5.27849 9.70255 5.40951 9.29254 5.60393 8.91167C5.62656 8.86746 5.63748 8.81818 5.63564 8.76855C5.6338 8.71892 5.61927 8.67058 5.59343 8.62817C5.13084 7.86458 4.88293 6.96975 4.87593 6.03933C4.87184 5.47408 5.00309 4.9065 5.08593 4.6055C5.85593 4.75133 7.33934 5.5855 7.97751 6.52408C8.01376 6.57717 8.06645 6.61689 8.12747 6.63712C8.18849 6.65736 8.25447 6.65699 8.31526 6.63608C9.4893 6.2345 10.7635 6.23409 11.9378 6.63492C11.9984 6.65599 12.0644 6.65643 12.1254 6.63618C12.1863 6.61593 12.2389 6.57611 12.2749 6.52292C12.9131 5.58492 14.3959 4.75075 15.1659 4.6055C15.2488 4.9065 15.38 5.47408 15.3759 6.03933C15.3689 6.97033 15.121 7.86458 14.6578 8.627C14.632 8.66952 14.6175 8.71795 14.6156 8.76768C14.6138 8.8174 14.6247 8.86677 14.6473 8.91108C14.8457 9.299 14.9728 9.70617 15.0358 10.1256L14.1171 10.4313C14.0436 10.4557 13.9828 10.5083 13.9482 10.5776C13.9135 10.6468 13.9077 10.727 13.9322 10.8005C13.9566 10.874 14.0093 10.9348 14.0785 10.9694C14.1478 11.0041 14.2279 11.0099 14.3014 10.9854L15.0831 10.7247C15.08 11.0905 15.025 11.454 14.9198 11.8044L14.3014 11.5979C14.2279 11.5735 14.1478 11.5792 14.0785 11.6139C14.0093 11.6486 13.9566 11.7093 13.9322 11.7828C13.9077 11.8563 13.9135 11.9365 13.9482 12.0058C13.9828 12.075 14.0436 12.1276 14.1171 12.1521L14.7179 12.3522C13.9788 13.9523 12.2008 15.0833 10.1259 15.0833ZM16.0514 12.1813L15.4733 11.9888C15.5958 11.5793 15.6676 11.1517 15.6676 10.7083C15.6676 10.6494 15.66 10.5917 15.6577 10.5328L16.0514 10.4021C16.1249 10.3776 16.1857 10.325 16.2204 10.2558C16.255 10.1865 16.2608 10.1063 16.2363 10.0328C16.2119 9.95935 16.1593 9.89858 16.09 9.8639C16.0208 9.82922 15.9406 9.82347 15.8671 9.84792L15.5947 9.93892C15.5277 9.54205 15.4078 9.15595 15.2383 8.79092C15.7082 7.95146 15.9564 7.00604 15.9593 6.044C15.9663 5.12233 15.6647 4.23392 15.6518 4.19717C15.632 4.13974 15.5948 4.08991 15.5453 4.05458C15.4959 4.01925 15.4367 4.00018 15.3759 4C14.5114 4 12.7597 4.95492 11.9238 6.01658C10.7515 5.6627 9.50083 5.6629 8.32868 6.01717C7.49218 4.9555 5.73984 4 4.87534 4C4.81468 4.0003 4.75561 4.01943 4.70629 4.05475C4.65696 4.09007 4.61983 4.13983 4.60001 4.19717C4.58718 4.23392 4.28501 5.12233 4.29259 6.044C4.29548 7.00597 4.54341 7.95135 5.01301 8.79092C4.84321 9.15585 4.72332 9.54198 4.65659 9.93892L4.38418 9.84792C4.31069 9.82347 4.2305 9.82922 4.16125 9.8639C4.09201 9.89858 4.03937 9.95935 4.01493 10.0328C3.99048 10.1063 3.99623 10.1865 4.03091 10.2558C4.06559 10.325 4.12636 10.3776 4.19984 10.4021L4.59359 10.5328C4.59126 10.5917 4.58368 10.6494 4.58368 10.7083C4.58368 11.1517 4.65543 11.5793 4.77793 11.9888L4.19984 12.1813C4.12636 12.2057 4.06559 12.2583 4.03091 12.3276C3.99623 12.3968 3.99048 12.477 4.01493 12.5505C4.03937 12.624 4.09201 12.6848 4.16125 12.7194C4.2305 12.7541 4.31069 12.7599 4.38418 12.7354L4.97918 12.5371C5.79468 14.3676 7.79259 15.6667 10.1259 15.6667C12.4593 15.6667 14.4566 14.3676 15.2721 12.5371L15.8671 12.7354C15.9406 12.7599 16.0208 12.7541 16.09 12.7194C16.1593 12.6848 16.2119 12.624 16.2363 12.5505C16.2608 12.477 16.255 12.3968 16.2204 12.3276C16.1857 12.2583 16.1249 12.2057 16.0514 12.1813Z" fill="white"/>
<path fill-rule="evenodd" clip-rule="evenodd" d="M12.2971 12.2157C11.8252 12.5301 11.1888 12.6987 10.417 12.7348V11.4124L10.9152 10.9148C10.9561 10.874 10.9839 10.822 10.9952 10.7654C11.0065 10.7087 11.0007 10.65 10.9786 10.5966C10.9565 10.5433 10.919 10.4977 10.871 10.4657C10.8229 10.4336 10.7664 10.4166 10.7087 10.4167H9.54201C9.48442 10.417 9.4282 10.4342 9.38041 10.4664C9.33262 10.4985 9.29538 10.544 9.27338 10.5973C9.25139 10.6505 9.2456 10.709 9.25676 10.7655C9.26791 10.822 9.29551 10.874 9.33609 10.9148L9.83367 11.4124V12.7348C9.06251 12.6987 8.42551 12.5301 7.95417 12.2157C7.92231 12.1944 7.88656 12.1796 7.84899 12.1722C7.81141 12.1647 7.77273 12.1648 7.73517 12.1723C7.6976 12.1798 7.66188 12.1946 7.63005 12.2159C7.59822 12.2372 7.57089 12.2646 7.54963 12.2965C7.52837 12.3283 7.5136 12.3641 7.50616 12.4016C7.49871 12.4392 7.49874 12.4779 7.50624 12.5155C7.51375 12.553 7.52857 12.5887 7.54988 12.6206C7.57119 12.6524 7.59856 12.6797 7.63042 12.701C8.25926 13.121 9.09926 13.3333 10.1253 13.3333C11.152 13.3333 11.992 13.121 12.6208 12.701C12.6527 12.6798 12.6801 12.6525 12.7014 12.6207C12.7227 12.5888 12.7375 12.5531 12.745 12.5156C12.7524 12.478 12.7524 12.4394 12.745 12.4018C12.7375 12.3643 12.7226 12.3286 12.7013 12.2967C12.6802 12.2648 12.6529 12.2374 12.6211 12.2161C12.5893 12.1947 12.5536 12.1798 12.516 12.1723C12.4785 12.1648 12.4398 12.1647 12.4022 12.1722C12.3647 12.1796 12.3289 12.1944 12.2971 12.2157Z" fill="white"/>
</svg>
