<svg width="20" height="20" viewBox="0 0 20 20" fill="none" xmlns="http://www.w3.org/2000/svg">
<circle cx="10" cy="10" r="10" fill="#A4D4A0"/>
<path fill-rule="evenodd" clip-rule="evenodd" d="M10.1259 13.9167C8.69209 13.9167 7.74592 12.8597 7.54175 11.9421C7.83925 11.9934 8.13617 12.0243 8.43309 12.0576L8.6985 12.589C8.72756 12.6482 8.77587 12.6958 8.83553 12.724C8.89518 12.7522 8.96265 12.7593 9.02685 12.7441C9.09106 12.7289 9.1482 12.6924 9.18891 12.6404C9.22962 12.5885 9.25149 12.5243 9.25092 12.4583V12.1288C9.54142 12.1451 9.83192 12.1661 10.1224 12.1661L10.1259 12.1667L10.1294 12.1661C10.4199 12.1661 10.7104 12.1451 11.0009 12.1288V12.4583C11.0009 12.524 11.0231 12.5878 11.0638 12.6393C11.1046 12.6908 11.1615 12.727 11.2254 12.7421C11.2894 12.7573 11.3565 12.7504 11.416 12.7226C11.4755 12.6948 11.5239 12.6477 11.5533 12.589L11.8188 12.0576C12.1157 12.0243 12.4126 11.9934 12.7095 11.9421C12.5053 12.8597 11.5603 13.9167 10.1259 13.9167ZM12.9854 11.2975C12.1393 11.4655 11.28 11.5582 10.4176 11.5746V10.8291L10.9158 10.3315C10.9566 10.2907 10.9845 10.2387 10.9958 10.182C11.0071 10.1254 11.0013 10.0667 10.9792 10.0133C10.9571 9.95995 10.9196 9.91436 10.8716 9.88232C10.8235 9.85028 10.767 9.83323 10.7093 9.83333H9.54259C9.48482 9.83323 9.42833 9.85028 9.38027 9.88232C9.33221 9.91436 9.29475 9.95995 9.27263 10.0133C9.25051 10.0667 9.24473 10.1254 9.25603 10.182C9.26733 10.2387 9.29519 10.2907 9.33609 10.3315L9.83425 10.8291V11.5746C8.97675 11.5571 8.11925 11.4678 7.26642 11.2975C7.22412 11.289 7.18048 11.2901 7.13862 11.3005C7.09677 11.311 7.05776 11.3306 7.0244 11.3579C6.99103 11.3852 6.96414 11.4196 6.94568 11.4586C6.92721 11.4976 6.91761 11.5402 6.91759 11.5833C6.91759 12.96 8.28959 14.5 10.1259 14.5C11.9623 14.5 13.3343 12.96 13.3343 11.5833C13.3341 11.5402 13.3245 11.4977 13.306 11.4588C13.2875 11.4198 13.2606 11.3855 13.2272 11.3582C13.1939 11.3308 13.1549 11.3112 13.1131 11.3008C13.0713 11.2903 13.0277 11.2892 12.9854 11.2975ZM7.72142 9.24125C7.79642 9.25931 7.87551 9.24717 7.94164 9.20745C8.00777 9.16773 8.05564 9.10361 8.07492 9.02892C8.16359 8.67542 8.35784 8.08392 8.66759 8.08392C8.97675 8.08392 9.171 8.67542 9.25967 9.02892C9.27839 9.10387 9.32612 9.16832 9.39236 9.20809C9.4586 9.24785 9.53792 9.25968 9.61288 9.24096C9.68784 9.22224 9.75229 9.17451 9.79205 9.10827C9.83182 9.04203 9.84364 8.96271 9.82492 8.88775C9.59509 7.96667 9.20542 7.5 8.66759 7.5C8.12917 7.5 7.74009 7.96667 7.50967 8.88833C7.49097 8.96321 7.50277 9.04245 7.54248 9.10863C7.58218 9.17481 7.64655 9.22252 7.72142 9.24125ZM10.6381 9.24125C10.7131 9.25931 10.7922 9.24717 10.8583 9.20745C10.9244 9.16773 10.9723 9.10361 10.9916 9.02892C11.0803 8.67542 11.2745 8.08392 11.5843 8.08392C11.8934 8.08392 12.0877 8.67542 12.1763 9.02892C12.1856 9.06603 12.2021 9.10096 12.2249 9.1317C12.2476 9.16244 12.2762 9.1884 12.309 9.20809C12.3418 9.22778 12.3782 9.24082 12.416 9.24646C12.4539 9.2521 12.4924 9.25023 12.5295 9.24096C12.5667 9.23169 12.6016 9.2152 12.6323 9.19243C12.6631 9.16967 12.689 9.14107 12.7087 9.10827C12.7284 9.07547 12.7414 9.03912 12.7471 9.00128C12.7527 8.96344 12.7509 8.92486 12.7416 8.88775C12.5118 7.96667 12.1221 7.5 11.5843 7.5C11.0458 7.5 10.6568 7.96667 10.4263 8.88833C10.4076 8.96321 10.4194 9.04245 10.4591 9.10863C10.4989 9.17481 10.5632 9.22252 10.6381 9.24125Z" fill="white"/>
<path fill-rule="evenodd" clip-rule="evenodd" d="M10.1259 15.0833C8.05101 15.0833 6.27243 13.9523 5.53393 12.3522L6.13476 12.1521C6.20825 12.1276 6.26901 12.075 6.30369 12.0058C6.33837 11.9365 6.34412 11.8563 6.31968 11.7828C6.29523 11.7093 6.2426 11.6486 6.17335 11.6139C6.1041 11.5792 6.02391 11.5735 5.95043 11.5979L5.33151 11.8044C5.22627 11.454 5.17128 11.0905 5.16818 10.7247L5.94984 10.9854C6.02235 11.0063 6.10013 10.9984 6.16691 10.9632C6.23368 10.9281 6.28427 10.8684 6.30809 10.7968C6.3319 10.7252 6.3271 10.6472 6.29469 10.5791C6.26227 10.5109 6.20476 10.4579 6.13418 10.4313L5.21601 10.1256C5.27849 9.70255 5.40951 9.29254 5.60393 8.91167C5.62656 8.86746 5.63748 8.81818 5.63564 8.76855C5.6338 8.71892 5.61927 8.67058 5.59343 8.62817C5.13084 7.86458 4.88293 6.96975 4.87593 6.03933C4.87184 5.47408 5.00309 4.9065 5.08593 4.6055C5.85593 4.75133 7.33934 5.5855 7.97751 6.52408C8.01376 6.57717 8.06645 6.61689 8.12747 6.63712C8.18849 6.65736 8.25447 6.65699 8.31526 6.63608C9.4893 6.2345 10.7635 6.23409 11.9378 6.63492C11.9984 6.65599 12.0644 6.65643 12.1254 6.63618C12.1863 6.61593 12.2389 6.57611 12.2749 6.52292C12.9131 5.58492 14.3959 4.75075 15.1659 4.6055C15.2488 4.9065 15.38 5.47408 15.3759 6.03933C15.3689 6.97033 15.121 7.86458 14.6578 8.627C14.632 8.66952 14.6175 8.71795 14.6156 8.76768C14.6138 8.8174 14.6247 8.86677 14.6473 8.91108C14.8457 9.299 14.9728 9.70617 15.0358 10.1256L14.1171 10.4313C14.0436 10.4557 13.9828 10.5083 13.9482 10.5776C13.9135 10.6468 13.9077 10.727 13.9322 10.8005C13.9566 10.874 14.0093 10.9348 14.0785 10.9694C14.1478 11.0041 14.2279 11.0099 14.3014 10.9854L15.0831 10.7247C15.08 11.0905 15.025 11.454 14.9198 11.8044L14.3014 11.5979C14.265 11.5858 14.2266 11.581 14.1884 11.5837C14.1501 11.5865 14.1128 11.5967 14.0785 11.6139C14.0442 11.6311 14.0136 11.6548 13.9885 11.6838C13.9634 11.7128 13.9443 11.7464 13.9322 11.7828C13.9201 11.8192 13.9153 11.8576 13.918 11.8959C13.9207 11.9341 13.931 11.9715 13.9482 12.0058C13.9653 12.04 13.9891 12.0706 14.0181 12.0957C14.0471 12.1208 14.0807 12.14 14.1171 12.1521L14.7179 12.3522C13.9788 13.9523 12.2008 15.0833 10.1259 15.0833ZM16.0514 12.1813L15.4733 11.9888C15.5958 11.5793 15.6676 11.1517 15.6676 10.7083C15.6676 10.6494 15.66 10.5917 15.6577 10.5328L16.0514 10.4021C16.1249 10.3776 16.1857 10.325 16.2204 10.2558C16.255 10.1865 16.2608 10.1063 16.2363 10.0328C16.2119 9.95935 16.1593 9.89858 16.09 9.8639C16.0208 9.82922 15.9406 9.82347 15.8671 9.84792L15.5947 9.93892C15.5277 9.54205 15.4078 9.15595 15.2383 8.79092C15.7082 7.95146 15.9564 7.00604 15.9593 6.044C15.9663 5.12233 15.6647 4.23392 15.6518 4.19717C15.632 4.13974 15.5948 4.08991 15.5453 4.05458C15.4959 4.01925 15.4367 4.00018 15.3759 4C14.5114 4 12.7597 4.95492 11.9238 6.01658C10.7515 5.6627 9.50083 5.6629 8.32868 6.01717C7.49218 4.9555 5.73984 4 4.87534 4C4.81468 4.0003 4.75561 4.01943 4.70629 4.05475C4.65696 4.09007 4.61983 4.13983 4.60001 4.19717C4.58718 4.23392 4.28501 5.12233 4.29259 6.044C4.29548 7.00597 4.54341 7.95135 5.01301 8.79092C4.84321 9.15585 4.72332 9.54198 4.65659 9.93892L4.38418 9.84792C4.31069 9.82347 4.2305 9.82922 4.16125 9.8639C4.09201 9.89858 4.03937 9.95935 4.01493 10.0328C3.99048 10.1063 3.99623 10.1865 4.03091 10.2558C4.06559 10.325 4.12636 10.3776 4.19984 10.4021L4.59359 10.5328C4.59126 10.5917 4.58368 10.6494 4.58368 10.7083C4.58368 11.1517 4.65543 11.5793 4.77793 11.9888L4.19984 12.1813C4.12636 12.2057 4.06559 12.2583 4.03091 12.3276C3.99623 12.3968 3.99048 12.477 4.01493 12.5505C4.03937 12.624 4.09201 12.6848 4.16125 12.7194C4.2305 12.7541 4.31069 12.7599 4.38418 12.7354L4.97918 12.5371C5.79468 14.3676 7.79259 15.6667 10.1259 15.6667C12.4593 15.6667 14.4566 14.3676 15.2721 12.5371L15.8671 12.7354C15.9406 12.7599 16.0208 12.7541 16.09 12.7194C16.1593 12.6848 16.2119 12.624 16.2363 12.5505C16.2608 12.477 16.255 12.3968 16.2204 12.3276C16.1857 12.2583 16.1249 12.2057 16.0514 12.1813Z" fill="white"/>
</svg>
