<svg width="340" height="500" xmlns="http://www.w3.org/2000/svg" xml:space="preserve" enable-background="new 0 0 1024 1024" version="1.1">

 <g>
  <title>Layer 1</title>
  <g id="svg_13">
   <path id="svg_2" d="m156.98779,436.00781c1.70056,6.40961 4.0365,12.67877 3.53711,19.52961c-0.0943,1.29351 1.05609,2.72595 1.76389,4.02227c6.61908,12.12335 2.41076,25.43146 -10.00122,31.62177c-6.37546,3.17975 -13.33353,4.36908 -20.23822,4.98303c-28.84519,2.56512 -57.48523,1.03583 -85.68311,-5.88483c-9.74026,-2.39056 -18.99917,-6.13739 -27.06216,-12.35717c-16.25034,-12.53577 -19.58499,-30.16993 -12.80362,-48.72223c3.95297,-10.8144 11.33349,-19.1612 20.50763,-25.86835c2.98114,-2.1795 3.52282,-4.16797 3.04242,-7.89758c-3.80796,-29.56263 -0.87171,-58.34009 11.02151,-85.94757c12.07034,-28.01862 31.01352,-51.09632 51.98593,-72.74381c10.17584,-10.50345 21.52393,-19.9686 28.96903,-32.89416c4.89468,-8.49784 4.95743,-8.4617 -0.71185,-16.09577c-6.51124,-8.76782 -6.55704,-8.86481 -16.47251,-4.18167c-3.74829,1.77039 -7.25763,4.05869 -10.82639,6.19363c-3.39788,2.03278 -6.62292,2.57407 -9.16018,-1.15444c-2.41956,-3.55561 -1.28983,-6.79181 1.75418,-9.24613c5.35754,-4.3197 11.46051,-7.37018 17.94168,-9.66086c2.3678,-0.83685 5.30643,-1.42908 3.44962,-4.9891c-1.67972,-3.22052 -0.19092,-9.2966 -6.9307,-8.21302c-6.07971,0.97751 -12.06296,2.38953 -17.92645,4.29261c-4.06021,1.31778 -7.53833,0.44793 -9.01148,-3.7374c-1.43029,-4.06338 1.08338,-6.5831 4.6258,-8.18011c6.59167,-2.97181 13.60415,-4.42221 20.7218,-5.09461c3.32223,-0.31381 4.31467,-1.62414 4.18842,-4.681c-0.53821,-13.03049 0.88473,-25.83563 3.64684,-38.60709c1.2753,-5.89682 -2.05126,-11.65649 -3.02166,-17.53478c-3.42432,-20.74323 -3.11435,-41.37952 1.44989,-61.86737c2.98727,-13.40912 12.56357,-17.33201 24.31058,-10.01786c13.63641,8.49051 25.55987,19.16287 36.88012,30.48734c2.35321,2.35409 4.31699,3.18267 7.8151,2.34289c17.38318,-4.17306 34.91604,-4.44235 52.28805,-0.02871c4.42829,1.12503 7.21045,0.06848 10.07752,-3.03034c8.62658,-9.32379 18.38696,-17.38165 28.53747,-24.98047c3.4762,-2.60235 7.09778,-4.98681 11.08753,-6.71475c9.56768,-4.14371 17.80041,-0.22949 20.51648,9.80106c2.39557,8.84686 3.57214,17.95288 3.95276,27.04178c0.6123,14.61929 1.01403,29.39901 -2.9917,43.63384c-2.54944,9.05973 0.58062,17.35746 1.4729,25.97281c0.80603,7.78214 1.4989,15.57968 0.96606,23.38352c-0.20996,3.07492 0.06934,4.47592 3.58234,4.86868c5.92865,0.66278 11.82196,1.83356 17.4743,3.88614c1.55817,0.56583 3.14649,1.14362 4.56403,1.98138c2.76965,1.63691 4.81573,3.95984 3.58947,7.3758c-1.32525,3.69204 -4.40155,5.07409 -8.06866,3.98385c-6.06421,-1.80294 -12.19464,-3.20446 -18.40692,-4.3739c-3.33222,-0.62729 -5.45221,-0.21408 -6.21753,3.56354c-0.51978,2.56546 -1.61298,5.01471 -2.56342,7.85584c4.31488,1.81939 8.4159,3.53884 12.50885,5.27728c3.84839,1.63458 7.50324,3.64035 10.80487,6.20007c3.01703,2.33899 4.08741,5.29199 1.71467,8.69058c-2.271,3.25284 -5.25721,3.8826 -8.68866,1.79016c-6.13672,-3.74203 -12.61353,-6.71582 -19.40107,-9.099c-2.65643,-0.93273 -4.35248,-0.51248 -5.94165,1.80848c-3.10382,4.53305 -6.22998,9.10196 -10.26629,12.86056c-2.62207,2.44171 -1.09656,4.96683 -0.61036,7.38739c2.97284,14.79968 6.11744,29.59153 7.47815,44.63095c1.64069,18.13367 0.4917,36.15339 -3.79742,53.93091c-3.70782,15.36823 -4.7981,31.15308 -6.85303,46.76605c-2.51617,19.11683 -4.19226,38.35901 -3.19183,57.70026c0.1795,3.47076 0.72919,6.92975 1.2428,10.37409c0.80139,5.37475 4.88757,6.45507 9.38617,7.24163c11.03076,1.92877 18.20678,8.37708 21.61493,19.02735c5.32171,16.63031 -3.38068,28.57458 -20.86182,28.6438c-1.6662,0.00659 -3.33411,-0.04297 -4.99841,0.01415c-13.30207,0.45612 -26.58936,0.88312 -36.45301,-11.91387c-5.11639,11.2539 -14.18286,12.27697 -23.93438,11.94494c-4.99262,-0.17004 -10.0055,-0.21277 -14.99308,0.02509c-15.02859,0.7168 -25.26956,-6.83844 -32.81704,-18.90637c-3.25598,-5.206 -6.04169,-10.70612 -9.35218,-16.67847c-2.93112,-8.1814 -5.55111,-15.7569 -8.32464,-23.77649c-1.80197,4.55463 -3.41931,8.64258 -5.23438,13.23022c5.76618,2.06031 9.67893,6.24433 13.34613,10.71393m110.69422,-197.46405c-1.1734,-10.34335 -3.41767,-20.48041 -5.49311,-30.90634c-42.67047,26.03265 -84.37698,25.91828 -125.35473,-2.89252c-6.3725,12.44071 -15.10071,22.47696 -24.85419,31.63379c-13.27246,12.46048 -25.46613,25.89408 -36.58728,40.27463c-26.30365,34.01276 -38.85648,72.16919 -32.88431,115.26349c2.73645,19.74573 11.46576,36.75043 27.73651,49.19488c3.13901,2.40088 6.46726,3.54194 10.55866,3.64832c19.142,0.49786 38.31048,-1.04053 57.43945,0.81384c2.66965,0.25873 5.29126,1.982 8.14172,0.74591c-2.42809,-7.22857 -6.98013,-10.52502 -14.42694,-11.00366c-4.54507,-0.29211 -8.92184,0.90472 -13.40762,1.03577c-3.62582,0.10583 -5.82904,-1.82898 -6.37311,-5.08844c-0.51483,-3.08435 1.11856,-5.55542 4.19553,-6.54163c2.67581,-0.8576 5.48843,-1.96936 8.20413,-1.87848c5.48074,0.18335 7.54523,-3.05218 9.26764,-7.3761c5.88318,-14.76934 5.88995,-29.88971 2.52606,-45.09472c-3.52401,-15.92902 -10.23666,-30.21344 -22.83896,-41.2013c-5.00735,-4.36584 -10.96563,-6.82409 -17.01559,-9.24493c-3.63724,-1.45538 -4.99942,-4.4903 -3.63468,-8.16028c1.30677,-3.51404 4.0178,-4.33295 7.70777,-3.41699c5.57233,1.38306 10.8211,3.45862 15.4696,6.74622c14.98777,10.59985 24.1846,25.40252 30.27069,42.39477c6.06049,16.92084 9.66617,34.55475 15.01511,51.68158c4.38162,14.02942 9.53342,27.71991 18.26691,39.74402c3.87445,5.33429 8.89752,9.27618 15.64132,9.62103c8.14438,0.41644 16.32743,0.24347 24.48929,0.09052c5.01734,-0.094 7.48633,-3.31031 6.78186,-8.28211c-0.90545,-6.3894 -3.42169,-11.76416 -9.30292,-15.14154c-6.19842,-3.55957 -9.33398,-9.36066 -11.07965,-15.99219c-1.7351,-6.59149 -2.89764,-13.33032 -3.37469,-20.11383c-1.60297,-22.79412 -0.02283,-45.60131 0.05042,-68.40356c0.01061,-3.30914 0.51916,-6.62421 0.91485,-9.92243c0.4209,-3.50769 2.66113,-5.42132 6.02277,-5.53729c3.38134,-0.1167 5.76861,1.71112 6.33288,5.15503c0.31879,1.94531 0.24604,4.0022 0.04425,5.97766c-1.56219,15.29315 -0.57361,30.63263 -0.88385,45.94733c-0.02856,1.4129 -0.46215,3.00329 0.91474,4.42718c1.79321,-0.51745 2.9862,-1.89721 4.21197,-3.19671c6.05841,-6.42285 12.16016,-12.80695 17.6106,-19.77271c26.45477,-33.80975 36.26092,-71.95086 29.6969,-115.22821m-100.64957,-177.88717c-2.16916,0.84027 -4.28503,1.88394 -6.52084,2.46987c-2.86878,0.75187 -5.28611,-0.29049 -6.88745,-2.81814c-1.48374,-2.34198 -1.22925,-4.72452 0.12851,-7.07211c0.64727,-1.11918 2.15737,-1.66971 2.13763,-3.84803c-11.38275,-10.08593 -22.36536,-21.27545 -36.80664,-29.36987c-0.79797,3.06757 -1.40601,4.79111 -1.68369,6.56628c-3.13412,20.03531 -2.96008,40.00702 0.65381,60.00727c1.04129,5.76281 3.23361,11.39166 1.52402,17.66397c-2.94229,10.79486 -3.58423,21.91836 -3.34158,33.12643c0.08807,4.06922 1.21731,5.3566 5.38656,5.50098c8.95032,0.31 17.91324,1.10049 26.56589,3.73294c3.45441,1.05099 5.55792,3.45691 4.78766,7.08844c-0.76907,3.62558 -3.65763,5.01529 -7.24729,4.55643c-2.79519,-0.35733 -5.54184,-1.27832 -8.33648,-1.41745c-5.8223,-0.2898 -11.62296,-2.06147 -17.62137,-1.07492c1.84103,9.09066 2.83371,9.84948 11.00241,8.45373c3.81265,-0.65143 7.64331,-0.70291 11.45813,-0.47363c4.12332,0.24783 6.75507,4.13296 5.4151,7.71161c-1.30786,3.4928 -4.4072,4.21277 -7.621,4.73071c-3.03165,0.48859 -6.25547,-0.54153 -9.80014,1.17789c16.71722,22.54834 38.74945,34.86978 66.21145,36.10916c31.30677,1.41293 56.81989,-10.80353 76.55561,-35.55878c-3.8971,-2.33478 -7.91761,-1.27978 -11.56861,-2.36392c-3.54504,-1.05273 -5.81244,-2.957 -5.51776,-6.5694c0.30042,-3.68316 2.90753,-5.2865 6.62311,-5.34259c3.85413,-0.05813 7.62201,0.57288 11.42981,0.92673c7.84967,0.72952 9.12286,-0.48074 9.8446,-8.66458c-2.26019,-0.9187 -4.5512,-0.43735 -6.84826,-0.12524c-6.41339,0.87142 -12.8255,1.75567 -19.24817,2.55416c-3.43866,0.42752 -6.01819,-0.98474 -6.80481,-4.40957c-0.85187,-3.70938 1.15826,-6.03418 4.58221,-7.19101c1.40711,-0.4754 2.8844,-0.74411 4.33118,-1.10105c8.90234,-2.19628 18.08087,-1.96106 27.65759,-2.94369c0.2334,-10.20938 0.79346,-20.25629 -1.25812,-30.293c-1.12304,-5.49426 -3.57122,-10.95108 -2.31188,-16.66193c4.07202,-18.46603 6.06738,-37.03689 3.73638,-55.9115c-0.78222,-6.33419 -0.9721,-12.80502 -3.93402,-19.56329c-14.18579,8.19544 -25.31262,18.96674 -36.27111,30.25256c3.14666,3.46097 4.34936,7.25785 1.77288,10.71946c-2.88214,3.87234 -6.87744,2.01272 -10.4848,0.58368c-0.15423,-0.06107 -0.29339,-0.15958 -0.44678,-0.22351c-23.34301,-9.732 -46.85449,-9.83549 -71.24374,-0.93509m-107.74414,419.31491c0.47736,0.14868 0.94504,0.35248 1.43344,0.43829c22.09882,3.87964 44.41763,3.62177 66.70029,3.05817c6.52063,-0.16498 13.33499,-0.55011 19.44479,-3.73548c5.27722,-2.75134 6.91815,-6.96179 4.81922,-12.48321c-1.32853,-3.49469 -3.80604,-5.74768 -7.27561,-7.05793c-5.85919,-2.21252 -11.98529,-2.6419 -18.14734,-2.8031c-20.13476,-0.52679 -40.3118,1.15992 -60.41159,-1.06103c-7.7832,-0.86005 -15.55145,-2.03497 -22.31079,-6.41022c-7.57053,-4.90039 -9.31104,-12.58868 -4.8143,-20.33862c0.71768,-1.23694 2.1857,-2.27173 1.26645,-4.00751c-1.91159,-3.60949 -2.95956,-7.67633 -5.7081,-11.30267c-6.46176,4.56427 -11.44006,10.02337 -14.8273,16.83612c-7.43289,14.94989 -3.98517,28.40955 9.72153,37.9762c8.79611,6.1394 18.8811,8.87493 30.10931,10.89099m179.8732,-107.34266c-2.27637,2.42841 -4.49689,4.91266 -6.84796,7.26648c-1.69464,1.69666 -2.17554,3.67835 -1.87793,5.93494c1.2998,9.8559 1.80786,19.81073 3.91418,29.56763c2.28479,10.58331 4.84137,21.0907 10.33307,30.53894c4.76715,8.20154 11.02674,14.05292 21.65363,12.88397c4.93561,-0.54291 9.97723,-0.08563 14.96972,-0.15674c7.00019,-0.09973 9.43378,-3.49542 7.87091,-10.34558c-1.79925,-7.88647 -6.97534,-11.91101 -14.59344,-12.92669c-10.44928,-1.39319 -15.8277,-7.70594 -17.54425,-17.55988c-0.7367,-4.22931 -1.45752,-8.47668 -1.44171,-12.84674c0.05176,-14.2956 -0.09955,-28.58154 1.953,-42.79407c0.64478,-4.46497 0.65582,-9.02142 1.04718,-14.88739c-6.28668,9.47907 -12.40289,17.31177 -19.4364,25.32513m-17.63355,44.63679c-0.97601,-7.30634 -1.95208,-14.61262 -2.97162,-22.24469c-1.97033,1.06457 -2.8778,2.13165 -2.84014,3.18176c0.24774,6.92077 1.13153,13.75427 4.13806,20.10425c0.34735,0.73364 1.11181,0.16638 1.6737,-1.04132z" fill="#000000"/>
   <path id="svg_7" d="m192.83594,169.8042c2.60608,-3.83466 1.81604,-6.586 -1.32285,-9.41257c-3.64056,-3.27838 -7.93765,-6.03622 -9.31286,-11.37573c-1.96842,-7.64273 0.46551,-11.17761 8.37222,-11.28348c6.16302,-0.08249 12.32806,-0.07889 18.49158,-0.03372c3.66265,0.02685 7.85998,-0.28873 9.57708,3.74841c1.80768,4.25016 0.74292,8.61499 -2.23687,12.13605c-2.35425,2.7818 -5.11036,5.23553 -7.7862,7.72965c-2.3092,2.15243 -2.59546,4.36392 -1.00366,7.10693c3.28192,5.65567 7.76282,9.04043 14.62122,8.38519c0.9942,-0.09497 1.99499,-0.12573 2.99334,-0.1712c3.15851,-0.14392 6.59119,-0.88956 7.09516,3.91308c0.52063,4.9614 -1.34021,7.88916 -6.14057,8.55085c-8.21856,1.13281 -15.95245,-0.0004 -22.43744,-5.78846c-0.85913,-0.76681 -1.76245,-1.48422 -2.93292,-2.46572c-6.41415,5.4776 -13.53043,9.24026 -22.18582,8.41171c-3.91315,-0.37458 -8.07321,-0.53037 -9.1919,-5.83448c-1.03359,-4.90051 0.39896,-7.08041 5.3292,-6.99673c1.82931,0.03107 3.65723,0.19327 5.48389,0.32269c5.52893,0.39173 9.72125,-1.70398 12.5874,-6.94247z" fill="#000000"/>
   <path id="svg_8" d="m158.55756,129.72232c-7.31003,-1.28769 -7.88257,-6.90427 -8.55387,-12.19601c-0.74896,-5.90397 2.29084,-12.12055 6.62122,-14.01661c5.09338,-2.2301 9.46387,-0.25787 13.36255,2.91233c3.85486,3.13455 4.5975,9.1672 2.1998,15.25094c-2.39417,6.07477 -6.22355,8.43433 -13.6297,8.04935z" fill="#000000"/>
   <path id="svg_9" d="m250.77881,121.29492c-0.97943,5.31323 -4.06799,8.08444 -8.8407,8.63208c-4.88178,0.56009 -8.69195,-1.5199 -11.24304,-5.80938c-5.3559,-9.00565 -3.24048,-17.24631 5.34332,-20.70063c5.45557,-2.19543 10.48328,-0.40726 12.90393,4.89817c1.80621,3.95864 2.80286,8.15786 1.83649,12.97976z" fill="#000000"/>
  </g>
 </g>
</svg>