<svg width="340" height="491" xmlns="http://www.w3.org/2000/svg" xml:space="preserve" enable-background="new 0 0 1024 1024" version="1.1">

 <g>
  <title>Layer 1</title>
  <g id="svg_13">
   <path id="svg_1" d="m326.43384,176.43018c-3.40936,1.04968 -5.36145,-0.89783 -7.50159,-2.48752c-3.73773,-2.77643 -7.55279,-5.44837 -11.31952,-8.18607c-2.63586,-1.91577 -4.23492,-1.15878 -5.97546,1.52875c-5.9411,9.17303 -6.01398,9.08081 0.90985,17.38049c3.09601,3.71128 5.99756,7.5777 8.11828,11.96201c2.38379,4.92813 1.73902,8.23691 -2.01812,10.35394c-3.43958,1.93811 -6.36975,0.64539 -9.23902,-4.03079c-3.56945,-5.81732 -7.40393,-11.42587 -12.62542,-15.99185c-3.5777,1.32809 -3.82587,3.56531 -2.81684,6.78851c6.85535,21.8978 10.41638,44.28378 9.35578,67.28464c-0.84497,18.32446 -4.68201,36.18689 -8.42957,54.07074c-4.88238,23.30005 -8.49188,46.74609 -7.61487,70.6886c0.19013,5.19158 1.33435,10.19238 2.0293,15.28357c0.81458,5.96728 3.58624,9.40252 9.89392,10.5957c10.73425,2.03046 18.17853,8.47387 20.47998,19.34985c3.26923,15.44898 -2.12903,27.24713 -20.52533,27.34149c-1.49963,0.00776 -3.0011,0.05219 -4.49872,-0.0025c-15.83935,-0.57886 -17.25793,3.26966 -35.45282,-8.77978c-8.35754,11.90844 -21.02948,9.06756 -32.77966,9.31384c-16.69885,0.35016 -27.25061,-8.78485 -34.604,-22.76032c-5.91315,-11.23809 -10.42316,-23.0299 -14.09766,-35.16076c-0.56573,-1.86756 -1.11346,-3.7406 -1.99011,-6.68964c-3.4444,5.81903 -6.37604,10.7533 -9.854,15.04163c0.17816,1.92785 1.61248,2.38159 2.68261,3.03821c9.38813,5.76055 12.16052,14.54797 11.14228,24.86321c-0.24616,2.49384 0.34356,3.94825 2.09655,5.59821c13.7273,12.92151 9.18915,32.74487 -8.77685,38.31647c-7.5213,2.33258 -15.37763,2.94696 -23.17078,3.09509c-15.32428,0.29132 -30.6723,0.52692 -45.98376,0.00311c-19.16248,-0.65551 -38.22913,-2.57385 -55.72547,-11.46307c-13.09131,-6.65112 -23.48468,-15.98792 -27.22394,-30.82111c-4.00482,-15.88733 0.21094,-30.01049 10.64551,-42.30175c6.38715,-7.52356 13.58692,-14.36695 22.37934,-18.95392c5.05999,-2.6399 6.11126,-6.12311 5.69079,-11.26721c-1.49206,-18.25379 0.73218,-36.14393 6.02045,-53.6543c7.96741,-26.38147 24.52057,-46.90637 44.30603,-65.32745c12.75403,-11.87458 27.49902,-21.74305 37.19629,-36.74842c3.44989,-5.33819 6.50927,-10.85144 8.99951,-16.68506c2.69214,-6.30655 2.64813,-6.37722 -3.72357,-10.24188c-4.1294,3.5806 -6.79468,8.3945 -9.87891,12.8696c-0.56586,0.82098 -1.01745,1.71966 -1.55371,2.56222c-3.5163,5.52558 -6.63892,6.88712 -10.32861,4.51679c-3.6637,-2.35364 -3.8916,-5.81674 -0.62512,-11.41132c3.11181,-5.32968 6.45855,-10.52008 10.63317,-15.08725c2.31037,-2.52774 2.91748,-4.47757 0.53949,-7.67163c-6.43176,-8.63879 -6.24054,-8.79647 -15.15197,-2.53436c-2.17939,1.53146 -4.28809,3.16309 -6.44318,4.72952c-3.19843,2.32486 -6.6731,2.85321 -9.48071,-0.14749c-3.01306,-3.22015 -1.40088,-6.6401 1.13757,-9.35824c4.59808,-4.9235 10.44385,-8.21372 16.14722,-11.65924c0.83899,-0.50684 1.66491,-1.03531 2.67932,-1.66749c-2.53876,-8.56387 -4.52552,-17.04431 -4.55927,-25.97879c-0.03558,-9.42401 1.03412,-18.56323 3.98462,-27.50119c0.72528,-2.19687 1.12683,-4.31051 0.44715,-6.78418c-5.03541,-18.32605 -3.89423,-36.85058 -1.61768,-55.43032c0.62683,-5.11561 1.28705,-10.21167 2.35547,-15.24228c2.21954,-10.45118 10.43902,-14.89517 20.26428,-10.65204c11.34009,4.89731 20.93933,12.63443 29.23139,21.45596c7.57299,8.05655 14.52038,10.69055 25.82238,7.39417c15.14313,-4.41675 31.00055,-2.64539 46.21674,2.00509c3.08685,0.94342 5.10474,0.60898 7.50067,-1.6961c9.73419,-9.36521 19.99103,-18.12271 31.48865,-25.32257c3.12378,-1.95615 6.3551,-3.59058 9.91229,-4.62659c7.41614,-2.15991 13.21484,0.4454 16.20575,7.59711c3.38116,8.08499 3.94794,16.76178 4.95715,25.32037c1.96717,16.68222 0.96369,33.18384 -3.51434,49.40945c-0.45429,1.64594 0.05975,2.92869 0.59387,4.30921c6.5553,16.94342 6.76019,34.08664 1.1806,51.25323c-1.2304,3.78553 -0.52178,5.57724 2.96473,7.37064c5.3349,2.74414 10.22686,6.30502 14.31695,10.76044c3.76868,4.10537 3.35156,7.42123 -1.42535,10.87262m-45.78821,83.802c0.45612,-21.02905 -1.94525,-41.59693 -9.41467,-61.91016c-17.62281,10.27939 -35.83386,15.25962 -55.7038,15.22772c-19.84021,-0.03183 -38.45697,-3.99008 -55.81427,-13.90344c-0.78345,1.47937 -1.31293,2.31668 -1.69116,3.21744c-6.84345,16.29599 -17.26849,29.84201 -30.81958,41.1788c-12.13306,10.15051 -24.23035,20.39331 -34.60718,32.42517c-26.89038,31.17932 -35.36072,67.29529 -28.47211,107.41889c2.36335,13.76568 9.547,25.46447 16.69989,37.1004c2.67737,4.35541 2.85767,11.1438 7.29377,13.06897c4.50634,1.95569 10.4721,0.49084 15.79583,0.63159c16.62921,0.43976 33.28882,-1.03271 49.89655,0.81305c2.52356,0.28046 3.05908,-1.36334 3.10791,-3.45636c0.1178,-5.03992 -3.56427,-9.13586 -9.4961,-10.66119c-6.73498,-1.73194 -13.5913,-0.75006 -20.38977,-1.04383c-3.97753,-0.17199 -6.10394,-2.18652 -6.35064,-6.1947c-0.24982,-4.05816 2.30255,-5.73376 5.68933,-6.28369c2.44067,-0.39624 5.0083,-0.40759 7.47497,-0.15613c4.02381,0.41028 6.91102,-1.12573 9.6327,-4.00067c12.54247,-13.24872 17.77947,-29.41937 16.8916,-47.07672c-1.08863,-21.65094 -9.30335,-40.03394 -29.04718,-51.60657c-3.04572,-1.78521 -4.23267,-4.63312 -2.50165,-8.14191c1.78528,-3.61871 4.88568,-3.87597 8.06879,-2.68762c2.61486,0.97626 5.18908,2.36066 7.40759,4.05371c23.26745,17.75702 30.56164,42.07996 28.46277,70.13862c-0.21228,2.83654 -0.79731,5.60034 0.44683,8.32348c3.61091,7.90363 5.52881,16.36548 8.13678,24.60169c3.87397,12.23431 8.12623,24.3048 15.64277,34.92639c4.32525,6.11194 9.86615,9.71008 17.61145,9.51086c5.66076,-0.14563 11.32983,0.05542 16.99255,-0.04553c5.37854,-0.09576 7.6012,-3.14734 6.72186,-8.53247c-1.03228,-6.32166 -3.96686,-11.18091 -9.77618,-14.20239c-7.71063,-4.01032 -11.39527,-10.71411 -12.98432,-19.04254c-1.71789,-9.00379 -2.45831,-18.07722 -3.057,-27.19623c-1.3208,-20.11927 -1.7301,-40.21235 1.13153,-60.24372c0.73376,-5.13635 3.15698,-7.27661 7.30725,-6.75824c3.85687,0.48169 5.97577,3.64392 5.24145,8.69635c-2.50311,17.22321 -1.69653,34.54682 -1.81732,51.84388c-0.02069,2.96856 0.53449,5.81543 1.79834,9.53155c32.81604,-33.49469 50.99909,-72.65869 54.49042,-119.56445m8.37518,-234.63178c-9.9436,6.86649 -19.75018,13.89032 -27.69262,23.32596c1.83111,1.58734 3.44537,2.59461 4.52819,4.00879c2.10193,2.74533 2.4527,5.91061 0.41541,8.81418c-2.09253,2.98218 -4.97516,2.88107 -7.97461,1.26767c-2.49396,-1.34155 -4.96124,-2.74985 -7.53198,-3.92859c-24.01099,-11.00934 -48.00965,-12.50003 -71.94599,0.24319c-7.50347,3.99472 -13.58313,9.58084 -18.3349,16.60959c-2.46301,3.64328 -5.90246,4.57001 -9.52722,2.54248c-4.05231,-2.26669 -3.58764,-5.99554 -1.68847,-9.58676c1.96203,-3.71026 4.54034,-7.00726 7.60485,-9.85324c3.61884,-3.36072 7.41181,-6.53394 11.51264,-10.12414c-10.44745,-10.04142 -20.62183,-19.86817 -33.84296,-26.52378c-0.68475,1.74597 -1.16687,2.61868 -1.37262,3.55228c-3.93286,17.84756 -5.74853,35.92984 -2.1947,53.92554c1.86493,9.44366 3.99792,18.30346 -0.41962,27.55914c-1.38055,2.89252 -1.52868,6.45172 -1.87609,9.74423c-1.05683,10.01621 0.32495,19.68164 4.16131,29.27411c9.30725,-3.60538 18.28156,-5.73041 27.69653,-6.09247c5.69056,-0.21887 9.21271,1.41409 9.65656,5.42615c0.41687,3.768 -2.59686,6.16186 -8.26801,6.5607c-0.49841,0.03509 -1.00543,-0.00931 -1.49786,0.05945c-7.54627,1.05371 -15.01013,2.39404 -21.82367,5.96447c2.78607,9.08017 4.15851,9.61133 11.8551,5.78394c4.61164,-2.29327 9.36231,-4.37604 14.21228,-6.09757c3.45795,-1.22747 6.81354,-0.4093 8.25275,3.43677c1.35925,3.63233 -0.57867,6.06305 -3.76355,7.64319c-1.18897,0.58985 -2.49078,0.95474 -3.67127,1.55878c-4.07751,2.08633 -8.55755,3.52563 -11.87737,6.95202c27.34356,29.83805 91.26306,31.88105 121.97082,-0.16891c-4.17395,-3.75522 -9.30359,-5.61395 -14.30579,-7.72012c-3.63659,-1.53116 -6.75158,-3.69202 -4.94909,-8.26972c1.72998,-4.39343 5.26074,-4.21716 9.20477,-3.06595c6.92462,2.0213 13.00964,5.77521 19.39056,9.21839c2.75391,-2.68717 4.88196,-5.46067 6.07123,-9.27426c-8.15948,-3.41312 -16.44604,-4.94245 -24.83899,-6.05301c-3.87768,-0.5131 -7.4433,-1.5579 -7.32245,-6.42246c0.0954,-3.83999 3.64484,-5.99939 8.48298,-5.59109c8.48803,0.7164 16.78552,2.42373 24.77337,5.32086c3.67841,1.33408 5.35767,0.59463 6.48517,-3.21191c4.20142,-14.18427 4.36694,-28.18174 -1.41901,-41.9632c-1.80548,-4.30054 -2.46191,-8.5072 -1.15698,-13.07999c4.88098,-17.10351 4.75421,-34.50644 2.44483,-51.92734c-0.56525,-4.26406 -0.79847,-8.90033 -3.7854,-12.85174c-1.82538,0.95911 -3.42951,1.80203 -5.63813,3.01437m-149.59991,421.76599c-20.64783,-0.23187 -41.29871,0.97907 -61.94263,-0.05108c-8.67645,-0.43286 -17.23975,-1.61914 -24.99975,-5.93012c-10.36005,-5.75531 -12.95954,-16.987 -6.35425,-26.84479c2.0805,-3.10504 4.83813,-5.46545 7.78033,-7.68035c1.27027,-0.95624 3.09015,-1.7132 2.24457,-3.90003c-1.46661,-3.79327 -2.00079,-7.97534 -4.57519,-11.63513c-10.18452,5.38312 -18.12403,12.85242 -24.19092,22.20258c-8.50055,13.10101 -6.49433,28.76263 4.71972,39.60986c6.24689,6.04254 13.78034,9.85638 21.95319,12.47327c11.16199,3.57391 22.70935,4.62335 34.34821,5.4093c17.31329,1.16913 34.62701,0.74817 51.92272,0.28253c5.56025,-0.14972 11.30378,-0.12854 16.8335,-1.70581c5.95148,-1.69775 9.25696,-4.84369 9.45416,-9.53662c0.19763,-4.70459 -3.1557,-8.91663 -8.96319,-10.59442c-5.60871,-1.6203 -11.39704,-2.29084 -18.23047,-2.09919m128.33594,-40.03289c-4.8935,-18.28003 -3.14161,-36.84247 -2.21619,-56.2793c-7.30371,11.24622 -14.56055,21.50708 -23.08844,30.79553c-1.09662,1.19452 -1.06519,2.65027 -0.78436,4.22382c1.2799,7.17145 2.32226,14.38708 3.69867,21.539c2.3139,12.02338 5.734,23.60138 14.52685,32.77618c2.8468,2.97058 6.09973,5.21582 10.3747,5.25666c7.15289,0.06842 14.31152,0.15307 21.45929,-0.0564c5.05188,-0.14795 7.71301,-3.9306 6.66113,-8.90076c-1.49347,-7.05664 -5.79389,-11.87701 -12.76337,-13.11505c-9.27179,-1.64709 -14.84021,-6.80725 -17.86828,-16.23968m-212.29517,18.75915c3.43262,6.74085 10.10687,6.13117 17.05487,7.94269c-2.77777,-6.98425 -6.05316,-12.27161 -9.90021,-17.40479c-3.9964,2.12403 -6.77783,4.47706 -7.15466,9.4621m172.29456,-25.21033c0.84027,2.3487 0.88317,5.12555 3.98114,7.05665c-0.5658,-4.693 -1.06061,-8.79755 -1.59205,-13.20539c-3.31781,1.12598 -2.72326,3.38733 -2.38909,6.14874z" fill="#000000"/>
   <path id="svg_4" d="m222.69965,159.2742c3.65319,5.01718 8.2752,6.86874 14.09637,6.4599c3.19513,-0.22443 7.28937,-0.86941 7.42078,4.19916c0.10888,4.19873 -1.48072,7.02737 -6.42206,7.85049c-6.78357,1.12995 -12.43976,-1.04455 -17.96716,-4.32205c-1.83832,-1.09003 -3.53919,-2.41187 -5.56275,-3.80682c-6.5423,6.04419 -14.18799,8.56778 -22.97076,7.73181c-4.32233,-0.41144 -6.74036,-3.10373 -6.59027,-7.60559c0.15332,-4.59946 3.49591,-4.33432 6.44867,-4.06525c7.22039,0.65808 12.65838,-1.85876 16.26806,-8.22558c1.51087,-2.66474 1.50446,-4.99723 -0.98395,-7.10849c-1.64892,-1.39893 -3.0921,-3.04767 -4.78283,-4.38858c-3.85993,-3.0611 -5.27655,-6.97519 -5.06311,-11.84992c0.15661,-3.57538 1.86358,-5.34473 5.15021,-5.39664c8.49255,-0.13418 16.99536,-0.24078 25.48114,0.03666c5.20385,0.17013 7.36981,8.48257 3.49798,13.91772c-1.69952,2.38583 -4.15961,4.29541 -6.48883,6.15219c-3.68219,2.93515 -5.0531,6.07962 -1.53149,10.42099z" fill="#000000"/>
   <path id="svg_5" d="m240.65155,106.89844c-2.5907,-9.58268 -0.57495,-12.11215 8.97101,-12.27536c5.95257,-0.10175 11.54455,1.12448 16.67346,4.03915c2.92914,1.66458 5.40198,3.94193 5.16467,7.84811c-0.22204,3.65284 -2.61676,5.10398 -5.802,5.76478c-1.73999,0.36102 -2.1112,1.90481 -2.84064,3.18689c-4.18737,7.3601 -10.78839,8.06057 -16.53723,1.76565c-2.62011,-2.86899 -4.1632,-6.35263 -5.62927,-10.32922z" fill="#000000"/>
   <path id="svg_6" d="m179.95038,120.51358c-6.51679,1.42438 -9.38855,0.24747 -12.28125,-5.09186c-1,-1.8457 -2.13562,-3.05304 -4.14887,-3.91781c-4.50622,-1.93555 -5.28057,-6.48536 -2.02301,-10.14844c4.57209,-5.14127 18.07636,-8.52051 24.6922,-6.2143c2.89563,1.00943 4.25245,2.98502 4.14978,6.04743c-0.26806,8.00122 -3.66778,14.34628 -10.38885,19.32498z" fill="#000000"/>
  </g>
 </g>
</svg>