<svg width="280" height="374" xmlns="http://www.w3.org/2000/svg" xml:space="preserve" enable-background="new 0 0 1024 1024" version="1.1">

 <g>
  <title>Layer 1</title>
  <g id="svg_13">
   <path id="svg_3" d="m99.22752,175.84772c-6.98244,-5.5177 -13.15203,-11.34131 -17.83852,-18.54401c-1.39683,-2.14673 -2.95213,-2.94031 -5.39593,-2.03033c-3.26825,1.21698 -6.5674,2.35223 -9.86434,3.4906c-3.03433,1.04773 -6.16072,1.46234 -7.83955,-1.95508c-1.75909,-3.58081 0.35867,-5.99896 3.33025,-7.80383c3.56528,-2.16541 7.53744,-3.4188 11.38895,-4.76572c0,-0.73669 0.11072,-1.25208 -0.01634,-1.70004c-2.59663,-9.15415 -2.60304,-9.11689 -12.24037,-9.38428c-2.15218,-0.05969 -4.29941,-0.43219 -6.44054,-0.72257c-2.89741,-0.39294 -4.44431,-2.09259 -4.56795,-5.01229c-0.13855,-3.27182 1.87109,-5.06824 4.71291,-5.48496c3.10604,-0.45547 6.32093,-0.38315 9.47473,-0.24017c3.37516,0.15307 4.94828,-1.03501 4.74494,-4.58573c-0.50986,-8.90271 0.865,-17.57803 3.58848,-26.04382c0.50196,-1.56027 0.18938,-2.9548 -0.38789,-4.36005c-3.39842,-8.27291 -4.07464,-17.11306 -5.05862,-25.83102c-1.21366,-10.75296 -1.46801,-21.58542 -1.15893,-32.41574c0.12427,-4.35468 0.98613,-8.60486 2.32196,-12.71192c2.86853,-8.81936 9.05934,-11.91314 18.97711,-9.60147c15.11505,3.52307 27.3325,12.03751 37.99863,22.85611c2.79918,2.83921 5.03225,3.13181 8.64851,2.18879c15.19814,-3.96323 30.58002,-4.44904 45.82164,-0.41373c4.33934,1.14889 7.2408,0.14218 10.34602,-2.57715c8.42267,-7.37585 17.39284,-14.00064 27.62577,-18.71408c4.22841,-1.94769 8.51326,-3.6731 13.27539,-4.04044c7.69151,-0.59338 12.39729,2.25373 14.7068,9.72522c3.13982,10.15757 3.43918,20.68583 2.74048,31.14692c-0.75151,11.25195 -0.09946,22.98892 -4.05234,33.52645c-3.73808,9.96494 1.0562,18.44532 1.68202,27.58365c0.23795,3.47437 0.5952,6.95462 0.55298,10.43573c-0.03419,2.81958 1.15001,3.88947 3.89487,3.80194c2.99466,-0.09549 6.01275,-0.13275 8.99152,0.13196c3.25973,0.28971 5.86813,1.79794 6.01373,5.4773c0.13992,3.53552 -2.1901,4.7243 -5.36203,5.32403c-2.98258,0.56394 -5.9787,1.00006 -8.93228,0.651c-4.65361,-0.54995 -7.26835,1.03519 -7.83556,5.83792c-0.19003,1.60901 -0.86854,3.16037 -1.39458,4.98343c3.68088,1.63153 7.22205,3.00312 10.57204,4.74283c3.21291,1.66852 5.55937,4.29865 3.58595,8.08246c-1.87774,3.60028 -5.1866,2.89099 -8.32231,1.60504c-0.61618,-0.25268 -1.21408,-0.5506 -1.83272,-0.79663c-9.12677,-3.63068 -8.99717,-3.526 -15.17768,4.24518c-4.35907,5.48102 -9.284,10.50366 -15.08768,14.49475c-2.68775,1.84827 -3.03736,3.62958 -1.76139,6.62878c6.76984,15.91291 9.92095,32.56513 10.86388,49.85633c1.22919,22.54022 -1.77678,44.81274 -2.93552,67.20251c-0.28387,5.48499 -0.06936,10.99414 -0.25317,16.48651c-0.10463,3.12592 2.25166,3.76758 4.29711,4.77722c9.44306,4.66126 13.86586,12.18378 12.6354,21.55274c-1.12729,8.58343 -8.06376,16.70441 -17.20695,17.81213c-11.18483,1.35523 -22.61152,1.77014 -33.33123,-3.08435c-1.67007,-0.75635 -2.64628,-0.20465 -4.08659,0.37769c-14.9628,6.0495 -29.91733,7.51117 -44.47047,-1.10797c-2.25238,-1.33405 -3.33785,0.1676 -4.94126,0.67407c-20.92894,6.61114 -41.79459,7.61889 -59.47023,-7.14453c-7.41968,-6.19721 -14.98974,-10.40296 -23.58392,-14.27265c-27.41976,-12.34631 -42.23931,-34.3009 -43.04762,-64.20636c-0.58908,-21.79431 6.86436,-41.24902 24.35067,-55.62152c5.64246,-4.63763 12.21238,-7.65619 19.75776,-7.02905c12.16288,1.01093 18.14034,13.86249 11.69517,25.26459c-2.44879,4.33203 -5.64787,8.23382 -8.38674,12.40918c-7.53921,11.49341 -10.79723,23.84137 -7.13287,37.46765c1.0017,3.72491 2.71333,7.11578 5.57745,10.51825c1.09686,-6.90064 1.85223,-13.36408 3.18176,-19.70722c4.61564,-22.02099 15.44479,-40.95361 29.46417,-58.24469c7.5617,-9.32647 14.86444,-18.83264 20.54573,-29.46862c0.77121,-1.44385 1.48793,-2.91687 2.37253,-4.65705c-3.50435,-2.39508 -6.77131,-4.62793 -10.32319,-7.07989m11.60743,29.40185c-7.89202,12.77222 -18.25461,23.77961 -26.08284,36.60395c-13.98576,22.91162 -21.38585,47.25451 -15.32088,74.18628c2.82033,12.52374 8.20987,24.18249 20.87411,29.41125c11.43577,4.72156 23.7426,4.40381 35.80695,1.76709c3.84979,-0.84143 4.75708,-4.01862 2.4564,-7.24561c-1.6381,-2.2976 -4.01463,-3.49377 -6.80614,-3.67755c-3.49184,-0.22986 -6.99883,-0.30426 -10.42725,0.59693c-3.94652,1.03723 -7.05674,0.04828 -8.45494,-3.96198c-1.32116,-3.78924 0.97117,-6.94678 5.67664,-8.31506c1.27124,-0.36963 2.59194,-0.94501 3.86063,-0.8772c3.82292,0.20429 5.25982,-2.09924 6.21365,-5.22998c2.73682,-8.98309 2.72997,-18.06006 0.67629,-27.11395c-2.47715,-10.92084 -7.34334,-20.31281 -17.66746,-25.99378c-3.76974,-2.07428 -5.25423,-6.04284 -3.41862,-9.1618c2.12866,-3.617 5.50846,-3.43213 8.79036,-2.03253c8.3124,3.5448 14.36217,9.77533 18.49062,17.56647c8.27283,15.6123 10.11218,32.19128 5.71446,49.31134c-0.78642,3.06158 -0.6883,4.87506 2.3059,6.49352c4.62976,2.50263 7.48082,6.70716 8.65081,11.7287c1.21998,5.23609 4.64368,8.08503 9.36043,9.34589c8.2605,2.20813 16.54207,1.28198 24.56453,-1.2926c4.45291,-1.42902 5.11749,-6.75263 1.18967,-9.44538c-2.7079,-1.85638 -5.80927,-3.41491 -8.9615,-4.28772c-5.94184,-1.64526 -7.49439,-5.70092 -7.73409,-11.21051c-0.2668,-6.13232 -1.1365,-12.23584 -1.53483,-18.36554c-0.86249,-13.27282 -2.53646,-26.4989 -2.38111,-39.8316c0.04892,-4.19885 2.03984,-6.56335 6.40755,-6.54632c4.14876,0.01611 5.98869,2.40704 6.22786,6.27069c0.7083,11.44262 1.28691,22.89392 2.08426,34.3302c0.50798,7.28595 1.32271,14.55029 1.98103,21.82605c0.15282,1.68884 0.61794,2.95263 3.15814,2.40033c0.28371,-6.36335 0.32744,-12.80841 0.98792,-19.23285c1.41109,-13.72559 3.95357,-27.2461 6.45256,-40.77912c0.68521,-3.71063 3.4532,-5.8377 7.29326,-5.34332c3.72427,0.47943 5.4751,3.14069 5.00834,6.81317c-0.64784,5.09723 -1.72084,10.13947 -2.4111,15.23248c-2.24721,16.58069 -6.19249,33.02985 -3.59125,49.98578c0.65317,4.25763 2.39553,8.35974 2.04496,12.74842c-0.29044,3.63562 1.68084,5.05047 4.86911,5.66711c5.761,1.11432 11.57251,1.14081 17.40147,1.06378c6.47691,-0.08551 9.94798,-2.37256 10.90022,-7.27441c0.86322,-4.44354 -0.97778,-7.37305 -7.48019,-9.46906c-5.67592,-1.8294 -8.83606,-4.93139 -8.8972,-10.99688c-0.02512,-2.49061 -0.40343,-4.97736 -0.43799,-7.46833c-0.26813,-19.32385 2.30869,-38.49438 3.40756,-57.74279c1.29112,-22.61615 -1.45915,-44.39808 -8.52179,-65.8042c-1.3481,-4.08594 -3.16696,-4.43512 -6.94059,-2.86994c-12.11023,5.02295 -24.84906,7.16797 -37.94646,7.3454c-11.40883,0.15448 -22.54965,-1.50714 -33.38848,-4.98328c-3.30602,-1.06036 -5.07431,-0.36548 -6.65145,2.8064c-2.14333,4.31067 -4.90179,8.31555 -7.79953,13.05206m1.4607,-149.43728c-4.55654,3.18191 -8.23677,7.26236 -11.66576,11.56775c-11.58069,14.54028 -19.34232,30.53659 -19.37463,49.65179c-0.00679,4.01733 1.65541,5.35321 5.18984,5.55646c2.31798,0.13336 4.64545,0.26806 6.94041,0.59851c3.97393,0.57217 6.67164,2.5 5.81826,6.98154c-0.85195,4.47399 -4.40439,4.22299 -7.85154,4.08432c-2.20262,-0.08863 -4.44501,-1.8603 -6.62818,0.00961c0.48178,6.75808 1.22261,7.36838 7.59577,6.75552c2.98268,-0.2868 6.00251,-0.49496 8.87106,0.72895c2.25324,0.96133 3.28417,2.68276 3.09155,5.1444c-0.17499,2.23612 -1.29439,3.68296 -3.44035,4.37601c-1.97974,0.63934 -4.2449,0.46564 -6.56851,2.23322c20.55617,23.60357 46.72391,30.4223 76.23085,27.02728c20.3088,-2.33673 37.52021,-11.02069 50.83468,-27.83197c-2.79386,-0.5683 -4.74732,-0.94739 -6.69236,-1.36566c-2.68586,-0.57764 -3.92404,-2.36374 -3.90789,-5.00721c0.01481,-2.42651 1.16644,-4.02481 3.60806,-4.73764c2.62689,-0.7669 5.21191,-0.77276 7.89731,-0.35494c6.50728,1.01239 7.9887,-0.36081 8.11702,-6.91248c-2.80738,0 -5.62424,0.12137 -8.42594,-0.03278c-3.03418,-0.16696 -5.01768,-1.74435 -5.19955,-4.94873c-0.17468,-3.07794 1.17068,-5.14761 4.36252,-5.65915c2.45463,-0.39337 4.94188,-1.04119 7.3865,-0.93411c3.88188,0.17005 5.29353,-1.20938 5.23103,-5.17639c-0.22672,-14.39151 -4.98251,-27.29004 -12.01962,-39.62235c-24.88559,-43.61108 -80.67883,-44.86035 -109.40053,-22.13195m-55.03298,267.80105c-0.22499,-6.0011 -1.45655,-11.37707 -7.47525,-14.52313c-1.83598,-0.95966 -3.30775,-2.78351 -4.68293,-4.4314c-13.69506,-16.41064 -13.7062,-34.49389 -6.35439,-53.41534c3.11203,-8.00946 8.52334,-14.63208 13.22641,-21.68304c1.18771,-1.78071 2.67121,-3.89649 0.97272,-5.93659c-1.75854,-2.11218 -4.24213,-1.42194 -6.45865,-0.50165c-6.71995,2.78998 -11.59611,7.79505 -15.44864,13.71826c-15.57225,23.94196 -13.18811,53.62861 6.044,74.66376c5.39676,5.90277 11.636,10.79987 20.17673,12.10913m21.73638,-280.76205c0.54003,8.94992 0.21766,18.00506 2.95459,27.50473c8.65608,-12.3089 17.62936,-23.14215 29.99651,-30.60745c2.92088,-1.76313 1.42522,-3.67438 -0.20912,-5.23313c-7.72206,-7.36474 -16.78864,-12.35516 -27.07842,-15.18893c-3.10084,-0.85398 -4.67958,0.18048 -5.27036,3.29733c-1.21589,6.41479 -1.50776,12.83939 -0.3932,20.22745m144.37362,15.31012c2.87945,3.78851 5.75889,7.57705 9.03935,11.89316c2.4433,-12.60895 2.51237,-24.81455 2.29387,-37.02555c-0.06488,-3.62588 0.22476,-7.25763 -0.72173,-10.89618c-0.82857,-3.18518 -2.24043,-4.03955 -5.34221,-3.05938c-11.38156,3.59668 -20.29402,10.85208 -29.43651,19.11636c9.0967,5.63223 17.38857,11.37643 24.16723,19.97159z" fill="#000000"/>
   <path id="svg_10" d="m160.83087,156.7652c-2.22386,-1.55548 -3.96341,-1.6344 -6.18634,-0.3913c-4.65237,2.60175 -9.75597,3.20349 -14.95647,1.88135c-3.88162,-0.98688 -7.22253,-3.04828 -8.55275,-6.95587c-0.93934,-2.75949 -1.73352,-6.23499 1.57409,-8.06519c2.85916,-1.58206 5.4474,-0.21454 7.37115,2.31827c2.35057,3.09473 5.20807,3.97494 8.71182,1.92908c4.27765,-2.49771 4.61605,-5.36277 0.78542,-8.58701c-2.04079,-1.71774 -4.28801,-3.12012 -5.20528,-5.84872c-1.36398,-4.05744 0.44857,-7.60953 4.60259,-8.24344c5.24335,-0.80014 10.47517,-1.51312 15.83406,-0.24878c2.82976,0.66766 5.06186,1.53598 5.95823,4.47458c0.87992,2.88467 -0.30136,5.21411 -2.17123,7.25128c-0.77515,0.84448 -1.8269,1.43295 -2.74254,2.151c-2.74771,2.15488 -3.95595,4.67307 -1.20681,7.5831c2.55197,2.70135 5.51139,3.76575 8.78236,1.01636c0.50439,-0.42398 0.92181,-0.95886 1.34456,-1.47122c2.11668,-2.56537 4.79576,-4.1933 7.74809,-1.95392c3.03726,2.3038 2.26047,5.70587 0.7621,8.62863c-2.43303,4.74597 -9.4051,7.88672 -15.00189,6.82104c-2.42647,-0.46203 -4.76444,-1.38885 -7.45116,-2.28924z" fill="#000000"/>
   <path id="svg_11" d="m197.45991,121.7627c-4.44693,2.36517 -8.25016,1.42767 -11.18249,-1.72422c-3.76004,-4.04153 -5.7991,-8.78229 -3.77094,-14.53607c1.62601,-4.61288 4.6811,-7.74441 9.41663,-8.57956c3.5679,-0.62918 6.34874,1.52197 8.37697,4.35401c4.12064,5.75363 2.87897,15.43737 -2.84017,20.48584z" fill="#000000"/>
   <path id="svg_12" d="m121.33519,123.06564c-8.97215,-3.9577 -11.61027,-16.06988 -5.40012,-23.09423c4.78961,-5.41758 13.72846,-3.10633 16.76766,4.33544c3.44119,8.42615 -1.90137,17.59015 -11.36754,18.75879z" fill="#000000"/>
  </g>
 </g>
</svg>