<svg width="20" height="20" viewBox="0 0 20 20" fill="none" xmlns="http://www.w3.org/2000/svg">
<circle cx="10" cy="10" r="10" fill="#A4D4A0"/>
<path d="M6.70508 10.7629C6.70508 10.243 7.12655 9.82153 7.64649 9.82153C8.16641 9.82153 8.58788 10.243 8.58788 10.7629" stroke="white" stroke-width="0.65" stroke-miterlimit="10"/>
<path d="M11.4121 10.7629C11.4121 10.243 11.8336 9.82153 12.3535 9.82153C12.8734 9.82153 13.2949 10.243 13.2949 10.7629" stroke="white" stroke-width="0.65" stroke-miterlimit="10"/>
<path d="M8.37766 12.6457C8.70515 13.2007 9.3089 13.5733 9.99998 13.5733C10.6911 13.5733 11.2948 13.2007 11.6223 12.6457" stroke="white" stroke-width="0.65" stroke-miterlimit="10"/>
<path d="M16.5898 10.5989C16.5898 11.3694 15.9727 11.9958 15.2054 12.0103C14.5852 14.3037 12.4896 15.991 9.99998 15.991C7.51034 15.991 5.41472 14.3037 4.79457 12.0103C4.0273 11.9958 3.41016 11.3694 3.41016 10.5989C3.41016 10.2089 3.5682 9.85593 3.82359 9.60027C4.07324 9.35089 4.41558 9.19449 4.79457 9.18738C5.41472 6.89406 7.51034 5.20669 9.99998 5.20669C12.4896 5.20669 14.5852 6.89406 15.2054 9.18738C15.5844 9.19449 15.9267 9.35089 16.1764 9.60027C16.4318 9.85593 16.5898 10.2089 16.5898 10.5989Z" stroke="white" stroke-width="0.65" stroke-miterlimit="10"/>
<path d="M8.24532 6.96139C8.24532 7.93047 9.0309 8.71606 9.99999 8.71606C10.9691 8.71606 11.7547 7.93047 11.7547 6.96139C11.7547 5.9923 10.9691 5.20672 9.99999 5.20672H9.725C8.83704 5.20672 8.11719 4.48687 8.11719 3.59888" stroke="white" stroke-width="0.65" stroke-miterlimit="10"/>
<path d="M9.99998 5.20669H7.84218C6.9542 5.20669 6.23438 4.48684 6.23438 3.59888" stroke="white" stroke-width="0.65" stroke-miterlimit="10"/>
</svg>
