<svg width="20" height="20" viewBox="0 0 20 20" fill="none" xmlns="http://www.w3.org/2000/svg">
<circle cx="10" cy="10" r="10" fill="#A4D4A0"/>
<path fill-rule="evenodd" clip-rule="evenodd" d="M10.0058 12.3619L9.69957 12.5661L9.39274 12.3619C9.59539 12.3246 9.80317 12.3246 10.0058 12.3619ZM9.99124 13.073L10.7362 12.576C10.7721 12.5521 10.8023 12.5204 10.8245 12.4834C10.8467 12.4464 10.8605 12.4049 10.8647 12.3619C10.8689 12.3189 10.8636 12.2756 10.849 12.2349C10.8345 12.1942 10.8111 12.1573 10.7805 12.1268C10.5297 11.8772 10.1662 11.75 9.69957 11.75C9.23291 11.75 8.86891 11.8772 8.61807 12.1274C8.58732 12.1578 8.56373 12.1946 8.54905 12.2352C8.53437 12.2759 8.52895 12.3193 8.5332 12.3623C8.53745 12.4053 8.55126 12.4468 8.57361 12.4838C8.59597 12.5207 8.6263 12.5523 8.66241 12.576L9.40791 13.073V14.0682C8.63616 14.032 7.99974 13.8634 7.52782 13.549C7.496 13.5276 7.46026 13.5128 7.42268 13.5053C7.38509 13.4978 7.3464 13.4979 7.30882 13.5054C7.27124 13.5129 7.23553 13.5278 7.20374 13.5492C7.17194 13.5706 7.1447 13.5981 7.12357 13.6301C7.10227 13.6619 7.08744 13.6976 7.07996 13.7351C7.07247 13.7727 7.07247 13.8114 7.07995 13.8489C7.08742 13.8865 7.10224 13.9222 7.12354 13.954C7.14484 13.9858 7.1722 14.0131 7.20407 14.0343C7.83291 14.4543 8.67291 14.6667 9.69957 14.6667C10.7262 14.6667 11.5662 14.4543 12.1945 14.0343C12.2264 14.0131 12.2537 13.9857 12.275 13.9539C12.2963 13.9221 12.3112 13.8864 12.3187 13.8488C12.3262 13.8112 12.3262 13.7726 12.3188 13.735C12.3113 13.6974 12.2965 13.6617 12.2753 13.6298C12.254 13.5979 12.2267 13.5706 12.1949 13.5492C12.163 13.5279 12.1273 13.5131 12.0897 13.5056C12.0522 13.4981 12.0135 13.4981 11.9759 13.5055C11.9383 13.513 11.9026 13.5277 11.8707 13.549C11.3994 13.8634 10.7624 14.032 9.99124 14.0682V13.073ZM7.94957 10.5833C8.02693 10.5833 8.10111 10.5526 8.15581 10.4979C8.21051 10.4432 8.24124 10.369 8.24124 10.2917V9.12499C8.24124 9.04764 8.21051 8.97345 8.15581 8.91876C8.10111 8.86406 8.02693 8.83333 7.94957 8.83333C7.87222 8.83333 7.79803 8.86406 7.74333 8.91876C7.68863 8.97345 7.65791 9.04764 7.65791 9.12499V10.2917C7.65791 10.369 7.68863 10.4432 7.74333 10.4979C7.79803 10.5526 7.87222 10.5833 7.94957 10.5833ZM11.1579 9.13024L11.1789 10.2969C11.1804 10.3733 11.2118 10.4459 11.2664 10.4994C11.3209 10.5528 11.3942 10.5828 11.4706 10.5827H11.4752C11.5135 10.5821 11.5514 10.574 11.5865 10.5588C11.6217 10.5435 11.6535 10.5215 11.6801 10.494C11.7068 10.4665 11.7277 10.434 11.7418 10.3984C11.7559 10.3628 11.7629 10.3247 11.7622 10.2864L11.7412 9.11975C11.7383 8.95875 11.5925 8.85666 11.4437 8.83333C11.3665 8.83486 11.293 8.86699 11.2394 8.92266C11.1858 8.97833 11.1565 9.05299 11.1579 9.13024Z" fill="white"/>
<path fill-rule="evenodd" clip-rule="evenodd" d="M14.0291 10.9963C13.871 9.00425 13.2614 6.64291 12.0323 5.28258C13.8617 6.11091 15.2407 7.75766 15.2407 9.125C15.2407 10.3611 14.6708 10.7974 14.0291 10.9963ZM9.69958 15.25C7.97 15.25 5.90792 14.6935 5.90792 12.0417C5.90792 9.66283 6.83483 4.75 9.69958 4.75C12.5643 4.75 13.4913 9.66283 13.4913 12.0417C13.4913 14.6935 11.4292 15.25 9.69958 15.25ZM4.15792 9.125C4.15792 7.75766 5.5375 6.11091 7.36742 5.28258C6.13775 6.64291 5.52875 9.00425 5.37008 10.9963C4.72842 10.7974 4.15792 10.3611 4.15792 9.125ZM15.8246 9.125C15.8246 6.93925 12.9406 4.16666 9.69958 4.16666C6.45858 4.16666 3.57458 6.93925 3.57458 9.125C3.57458 10.9602 4.7115 11.4367 5.33508 11.5966C5.32925 11.7477 5.32458 11.8982 5.32458 12.0417C5.32458 14.4864 6.87858 15.8333 9.69958 15.8333C12.5212 15.8333 14.0746 14.4864 14.0746 12.0417C14.0746 11.8982 14.0688 11.7477 14.0641 11.5966C14.6877 11.4367 15.8246 10.9602 15.8246 9.125Z" fill="white"/>
</svg>
