<svg width="234" height="108" viewBox="0 0 234 108" fill="none" xmlns="http://www.w3.org/2000/svg">
<path d="M67.6688 56.5481C63.9767 53.0517 59.085 51.103 54 51.103C48.915 51.103 44.0234 53.0517 40.3313 56.5481L23.8444 72.1406C14.3944 80.73 21.2119 97.1494 33.9694 96.5081C40.8881 96.3225 46.5075 92.7788 53.9832 92.9138C61.7288 92.7788 67.4832 95.9006 74.4357 96.5081C86.9738 96.795 93.4538 80.5613 84.1388 72.1406L67.6688 56.5481ZM96.0525 33.6319C89.6063 32.3663 84.6788 39.5381 83.3963 45.7144C79.5488 64.8338 98.0775 68.4788 102.414 49.9331C104.186 41.985 101.385 34.8131 96.0525 33.6319ZM68.7319 43.9594C75.1444 43.9594 80.3588 36.6694 80.3588 27.7256C79.7175 6.19314 57.7463 6.19314 57.1219 27.7256C57.1219 36.6694 62.3363 43.9594 68.7319 43.9594ZM24.6038 45.7144C23.3382 39.5381 18.3938 32.3663 11.9475 33.6319C2.71797e-05 36.6525 5.06253 62.1169 16.74 62.1844C23.355 61.965 26.4094 54.2869 24.6038 45.7144ZM39.2682 43.9594C45.6638 43.9594 50.8782 36.6694 50.8782 27.7256C50.2538 6.19314 28.2825 6.19314 27.6413 27.7256C27.6413 36.6694 32.8557 43.9594 39.2682 43.9594Z" fill="white"/>
<path d="M119 44V15.2H128.6L136.6 42.96H133.12L141.12 15.2H150.76V44H144.68V16.92H145.72L137.92 44H131.56L123.84 17.16H124.84V44H119ZM164.742 44.4C162.476 44.4 160.502 43.96 158.822 43.08C157.142 42.1733 155.836 40.92 154.902 39.32C153.996 37.72 153.542 35.88 153.542 33.8C153.542 31.6933 153.996 29.8533 154.902 28.28C155.836 26.68 157.129 25.44 158.782 24.56C160.436 23.6533 162.356 23.2 164.542 23.2C166.649 23.2 168.476 23.6267 170.022 24.48C171.569 25.3333 172.769 26.52 173.622 28.04C174.476 29.56 174.902 31.3467 174.902 33.4C174.902 33.8267 174.889 34.2267 174.862 34.6C174.836 34.9467 174.796 35.28 174.742 35.6H157.062V31.64H169.902L168.862 32.36C168.862 30.7067 168.462 29.4933 167.662 28.72C166.889 27.92 165.822 27.52 164.462 27.52C162.889 27.52 161.662 28.0533 160.782 29.12C159.929 30.1867 159.502 31.7867 159.502 33.92C159.502 36 159.929 37.5467 160.782 38.56C161.662 39.5733 162.969 40.08 164.702 40.08C165.662 40.08 166.489 39.92 167.182 39.6C167.876 39.28 168.396 38.76 168.742 38.04H174.382C173.716 40.0133 172.569 41.5733 170.942 42.72C169.342 43.84 167.276 44.4 164.742 44.4ZM117.96 93L128.28 64.2H133.56L124.08 93H117.96ZM139.08 93L129.64 64.2H135.16L145.48 93H139.08ZM123.4 81.84H139.56V86.64H123.4V81.84ZM162.16 93V88.48L162.56 88.56C162.294 90.0267 161.494 91.2 160.16 92.08C158.854 92.96 157.28 93.4 155.44 93.4C153.574 93.4 151.947 92.9733 150.56 92.12C149.2 91.24 148.147 90.0133 147.4 88.44C146.654 86.8667 146.28 85.0133 146.28 82.88C146.28 80.72 146.667 78.84 147.44 77.24C148.214 75.64 149.294 74.4 150.68 73.52C152.094 72.64 153.734 72.2 155.6 72.2C157.547 72.2 159.12 72.6533 160.32 73.56C161.547 74.4667 162.267 75.7067 162.48 77.28L162.04 77.32V64.2H168.04V93H162.16ZM157.36 88.6C158.774 88.6 159.92 88.1067 160.8 87.12C161.68 86.1067 162.12 84.6667 162.12 82.8C162.12 80.9333 161.667 79.5067 160.76 78.52C159.88 77.5067 158.72 77 157.28 77C155.894 77 154.747 77.5067 153.84 78.52C152.96 79.5333 152.52 80.9733 152.52 82.84C152.52 84.7067 152.96 86.1333 153.84 87.12C154.747 88.1067 155.92 88.6 157.36 88.6ZM182.518 93.4C180.278 93.4 178.304 92.96 176.598 92.08C174.918 91.1733 173.598 89.92 172.638 88.32C171.704 86.6933 171.238 84.8267 171.238 82.72C171.238 80.6133 171.704 78.7733 172.638 77.2C173.598 75.6267 174.918 74.4 176.598 73.52C178.304 72.64 180.278 72.2 182.518 72.2C184.784 72.2 186.758 72.64 188.438 73.52C190.144 74.4 191.464 75.6267 192.398 77.2C193.331 78.7733 193.798 80.6133 193.798 82.72C193.798 84.8267 193.318 86.6933 192.358 88.32C191.424 89.92 190.104 91.1733 188.398 92.08C186.718 92.96 184.758 93.4 182.518 93.4ZM182.518 88.68C183.451 88.68 184.291 88.44 185.038 87.96C185.811 87.48 186.424 86.8 186.878 85.92C187.331 85.0133 187.558 83.9333 187.558 82.68C187.558 80.84 187.064 79.4267 186.078 78.44C185.118 77.4267 183.931 76.92 182.518 76.92C181.104 76.92 179.904 77.4267 178.918 78.44C177.958 79.4533 177.478 80.8667 177.478 82.68C177.478 83.9333 177.704 85.0133 178.158 85.92C178.611 86.8 179.211 87.48 179.958 87.96C180.731 88.44 181.584 88.68 182.518 88.68ZM206.072 93.44C203.459 93.44 201.512 92.8133 200.232 91.56C198.979 90.28 198.352 88.3467 198.352 85.76V68.04L204.352 65.8V85.96C204.352 86.8667 204.606 87.5467 205.112 88C205.619 88.4533 206.406 88.68 207.472 88.68C207.872 88.68 208.246 88.64 208.592 88.56C208.939 88.48 209.286 88.3867 209.632 88.28V92.84C209.286 93.0267 208.792 93.1733 208.152 93.28C207.539 93.3867 206.846 93.44 206.072 93.44ZM194.552 77.16V72.6H209.632V77.16H194.552ZM225.678 93C225.518 92.4133 225.398 91.7867 225.318 91.12C225.264 90.4533 225.238 89.68 225.238 88.8H225.078V79.16C225.078 78.3333 224.798 77.6933 224.238 77.24C223.704 76.76 222.904 76.52 221.838 76.52C220.824 76.52 220.011 76.6933 219.398 77.04C218.811 77.3867 218.424 77.8933 218.238 78.56H212.518C212.784 76.72 213.731 75.2 215.358 74C216.984 72.8 219.211 72.2 222.038 72.2C224.971 72.2 227.211 72.8533 228.758 74.16C230.304 75.4667 231.078 77.3467 231.078 79.8V88.8C231.078 89.4667 231.118 90.1467 231.198 90.84C231.304 91.5067 231.464 92.2267 231.678 93H225.678ZM218.558 93.4C216.531 93.4 214.918 92.8933 213.718 91.88C212.518 90.84 211.918 89.4667 211.918 87.76C211.918 85.8667 212.624 84.3467 214.038 83.2C215.478 82.0267 217.478 81.2667 220.038 80.92L225.998 80.08V83.56L221.038 84.32C219.971 84.48 219.184 84.7733 218.678 85.2C218.171 85.6267 217.918 86.2133 217.918 86.96C217.918 87.6267 218.158 88.1333 218.638 88.48C219.118 88.8267 219.758 89 220.558 89C221.811 89 222.878 88.6667 223.758 88C224.638 87.3067 225.078 86.5067 225.078 85.6L225.638 88.8C225.051 90.32 224.158 91.4667 222.958 92.24C221.758 93.0133 220.291 93.4 218.558 93.4Z" fill="white"/>
</svg>
