<svg width="443" height="108" viewBox="0 0 443 108" fill="none" xmlns="http://www.w3.org/2000/svg">
<path d="M67.6687 56.5481C63.9766 53.0517 59.0849 51.103 54 51.103C48.915 51.103 44.0233 53.0517 40.3312 56.5481L23.8443 72.1406C14.3943 80.73 21.2118 97.1494 33.9693 96.5081C40.8881 96.3225 46.5075 92.7788 53.9831 92.9138C61.7287 92.7788 67.4831 95.9006 74.4356 96.5081C86.9737 96.795 93.4537 80.5613 84.1387 72.1406L67.6687 56.5481ZM96.0525 33.6319C89.6062 32.3663 84.6787 39.5381 83.3962 45.7144C79.5487 64.8338 98.0775 68.4788 102.414 49.9331C104.186 41.985 101.385 34.8131 96.0525 33.6319ZM68.7318 43.9594C75.1443 43.9594 80.3587 36.6694 80.3587 27.7256C79.7175 6.19314 57.7462 6.19314 57.1218 27.7256C57.1218 36.6694 62.3362 43.9594 68.7318 43.9594ZM24.6037 45.7144C23.3381 39.5381 18.3937 32.3663 11.9475 33.6319C-3.40044e-05 36.6525 5.06247 62.1169 16.74 62.1844C23.355 61.965 26.4093 54.2869 24.6037 45.7144ZM39.2681 43.9594C45.6637 43.9594 50.8781 36.6694 50.8781 27.7256C50.2537 6.19314 28.2825 6.19314 27.6412 27.7256C27.6412 36.6694 32.8556 43.9594 39.2681 43.9594Z" fill="white"/>
<path d="M120.2 77V30.92H135.56L148.36 75.336H142.792L155.592 30.92H171.016V77H161.288V33.672H162.952L150.472 77H140.296L127.944 34.056H129.544V77H120.2ZM193.388 77.64C189.761 77.64 186.604 76.936 183.916 75.528C181.228 74.0773 179.137 72.072 177.644 69.512C176.193 66.952 175.468 64.008 175.468 60.68C175.468 57.3093 176.193 54.3653 177.644 51.848C179.137 49.288 181.206 47.304 183.852 45.896C186.497 44.4453 189.569 43.72 193.068 43.72C196.438 43.72 199.361 44.4027 201.836 45.768C204.31 47.1333 206.23 49.032 207.596 51.464C208.961 53.896 209.644 56.7547 209.644 60.04C209.644 60.7227 209.622 61.3627 209.58 61.96C209.537 62.5147 209.473 63.048 209.388 63.56H181.1V57.224H201.644L199.98 58.376C199.98 55.7307 199.34 53.7893 198.06 52.552C196.822 51.272 195.116 50.632 192.94 50.632C190.422 50.632 188.46 51.4853 187.052 53.192C185.686 54.8987 185.004 57.4587 185.004 60.872C185.004 64.2 185.686 66.6747 187.052 68.296C188.46 69.9173 190.55 70.728 193.324 70.728C194.86 70.728 196.182 70.472 197.292 69.96C198.401 69.448 199.233 68.616 199.788 67.464H208.812C207.745 70.6213 205.91 73.1173 203.308 74.952C200.748 76.744 197.441 77.64 193.388 77.64ZM224.661 77L241.173 30.92H249.621L234.453 77H224.661ZM258.453 77L243.349 30.92H252.181L268.693 77H258.453ZM233.365 59.144H259.221V66.824H233.365V59.144ZM295.382 77V69.768L296.022 69.896C295.595 72.2427 294.315 74.12 292.182 75.528C290.091 76.936 287.574 77.64 284.63 77.64C281.643 77.64 279.04 76.9573 276.822 75.592C274.646 74.184 272.96 72.2213 271.766 69.704C270.571 67.1867 269.974 64.2213 269.974 60.808C269.974 57.352 270.592 54.344 271.83 51.784C273.067 49.224 274.795 47.24 277.014 45.832C279.275 44.424 281.899 43.72 284.885 43.72C288 43.72 290.518 44.4453 292.438 45.896C294.4 47.3467 295.552 49.3307 295.894 51.848L295.19 51.912V30.92H304.79V77H295.382ZM287.702 69.96C289.963 69.96 291.798 69.1707 293.206 67.592C294.614 65.9707 295.318 63.6667 295.318 60.68C295.318 57.6933 294.592 55.4107 293.142 53.832C291.734 52.2107 289.878 51.4 287.574 51.4C285.355 51.4 283.52 52.2107 282.07 53.832C280.662 55.4533 279.958 57.7573 279.958 60.744C279.958 63.7307 280.662 66.0133 282.07 67.592C283.52 69.1707 285.398 69.96 287.702 69.96ZM327.953 77.64C324.369 77.64 321.212 76.936 318.481 75.528C315.793 74.0773 313.681 72.072 312.145 69.512C310.652 66.9093 309.905 63.9227 309.905 60.552C309.905 57.1813 310.652 54.2373 312.145 51.72C313.681 49.2027 315.793 47.24 318.481 45.832C321.212 44.424 324.369 43.72 327.953 43.72C331.58 43.72 334.737 44.424 337.425 45.832C340.156 47.24 342.268 49.2027 343.761 51.72C345.254 54.2373 346.001 57.1813 346.001 60.552C346.001 63.9227 345.233 66.9093 343.697 69.512C342.204 72.072 340.092 74.0773 337.361 75.528C334.673 76.936 331.537 77.64 327.953 77.64ZM327.953 70.088C329.446 70.088 330.79 69.704 331.985 68.936C333.222 68.168 334.204 67.08 334.929 65.672C335.654 64.2213 336.017 62.4933 336.017 60.488C336.017 57.544 335.228 55.2827 333.649 53.704C332.113 52.0827 330.214 51.272 327.953 51.272C325.692 51.272 323.772 52.0827 322.193 53.704C320.657 55.3253 319.889 57.5867 319.889 60.488C319.889 62.4933 320.252 64.2213 320.977 65.672C321.702 67.08 322.662 68.168 323.857 68.936C325.094 69.704 326.46 70.088 327.953 70.088ZM365.641 77.704C361.459 77.704 358.345 76.7013 356.297 74.696C354.291 72.648 353.289 69.5547 353.289 65.416V37.064L362.889 33.48V65.736C362.889 67.1867 363.294 68.2747 364.105 69C364.915 69.7253 366.174 70.088 367.881 70.088C368.521 70.088 369.118 70.024 369.673 69.896C370.227 69.768 370.782 69.6187 371.337 69.448V76.744C370.782 77.0427 369.993 77.2773 368.969 77.448C367.987 77.6187 366.878 77.704 365.641 77.704ZM347.209 51.656V44.36H371.337V51.656H347.209ZM391.325 77.64C387.698 77.64 384.541 76.936 381.853 75.528C379.165 74.0773 377.074 72.072 375.581 69.512C374.13 66.952 373.405 64.008 373.405 60.68C373.405 57.3093 374.13 54.3653 375.581 51.848C377.074 49.288 379.144 47.304 381.789 45.896C384.434 44.4453 387.506 43.72 391.005 43.72C394.376 43.72 397.298 44.4027 399.773 45.768C402.248 47.1333 404.168 49.032 405.533 51.464C406.898 53.896 407.581 56.7547 407.581 60.04C407.581 60.7227 407.56 61.3627 407.517 61.96C407.474 62.5147 407.41 63.048 407.325 63.56H379.037V57.224H399.581L397.917 58.376C397.917 55.7307 397.277 53.7893 395.997 52.552C394.76 51.272 393.053 50.632 390.877 50.632C388.36 50.632 386.397 51.4853 384.989 53.192C383.624 54.8987 382.941 57.4587 382.941 60.872C382.941 64.2 383.624 66.6747 384.989 68.296C386.397 69.9173 388.488 70.728 391.261 70.728C392.797 70.728 394.12 70.472 395.229 69.96C396.338 69.448 397.17 68.616 397.725 67.464H406.749C405.682 70.6213 403.848 73.1173 401.245 74.952C398.685 76.744 395.378 77.64 391.325 77.64Z" fill="white"/>
</svg>
