<svg width="289" height="420" viewBox="0 0 289 420" fill="none" xmlns="http://www.w3.org/2000/svg">
<g clip-path="url(#clip0_44_120)">
<path d="M57.0764 205.133C58.6478 200.694 61.8603 197.027 66.0532 194.885C70.246 192.743 75.1003 192.289 79.6175 193.617L99.7802 199.528C111.191 202.63 112.486 219.04 101.697 223.886C95.9136 226.647 89.7873 226.092 83.6802 229.353C77.2366 232.504 73.807 237.503 68.3302 240.932C58.1128 246.451 45.9311 235.795 50.0645 224.928L57.0764 205.133ZM24.019 198.194C28.8011 194.435 35.8852 198.273 39.5445 202.825C50.7711 216.969 37.0288 227.78 25.6403 214.315C20.8311 208.508 20.1197 201.414 24.019 198.194ZM50.8967 195.2C45.6093 197.902 38.2388 194.087 34.4712 186.713C25.9292 168.688 44.0456 159.433 53.6311 176.924C57.3987 184.299 56.1702 192.506 50.8967 195.2ZM88.0218 178.058C86.4636 172.432 87.5192 164.436 93.3676 162.764C104.491 160.222 111.044 183.351 101.444 188.326C95.8971 190.932 90.1442 185.887 88.0218 178.058ZM75.191 182.789C69.9175 185.483 62.547 181.668 58.7794 174.294C50.2235 156.276 68.3399 147.021 77.9393 164.505C81.707 171.88 80.4784 180.087 75.191 182.789Z" fill="#D3B3B3"/>
</g>
<g clip-path="url(#clip1_44_120)">
<path d="M130.763 359.928C132.064 355.402 135.049 351.548 139.104 349.156C143.16 346.765 147.978 346.018 152.567 347.07L173.05 351.753C184.627 354.159 186.912 370.461 176.435 375.95C170.83 379.056 164.681 378.872 158.782 382.496C152.541 386.031 149.419 391.227 144.16 394.982C134.295 401.107 121.491 391.207 124.96 380.11L130.763 359.928ZM97.3468 354.999C101.893 350.958 109.196 354.361 113.124 358.684C125.185 372.124 112.121 383.745 99.9395 370.993C94.7881 365.487 93.6493 358.45 97.3468 354.999ZM123.995 350.387C118.88 353.403 111.293 350.041 107.086 342.908C97.4704 325.432 114.994 315.099 125.619 331.979C129.826 339.112 129.096 347.379 123.995 350.387ZM160.016 331.033C158.12 325.511 158.691 317.466 164.428 315.443C175.377 312.233 183.316 334.924 174.034 340.47C168.655 343.407 162.607 338.719 160.016 331.033ZM147.494 336.53C142.393 339.538 134.806 336.176 130.599 329.042C120.97 311.575 138.494 301.241 149.133 318.114C153.339 325.247 152.609 333.514 147.494 336.53Z" fill="#D3B3B3"/>
</g>
<g clip-path="url(#clip2_44_120)">
<path d="M212.985 227.614C215.091 223.404 218.732 220.161 223.157 218.552C227.582 216.944 232.455 217.092 236.774 218.967L256.054 227.321C266.994 231.806 266.255 248.251 254.951 251.728C248.871 253.755 242.86 252.449 236.397 254.931C229.614 257.264 225.594 261.801 219.736 264.529C208.916 268.744 198.142 256.667 203.584 246.393L212.985 227.614ZM181.036 216.651C186.245 213.51 192.801 218.193 195.871 223.162C205.267 238.583 190.296 247.616 180.656 232.849C176.6 226.493 176.769 219.365 181.036 216.651ZM208.077 216.996C202.497 219.024 195.653 214.33 192.824 206.547C186.571 187.606 205.691 180.656 213.045 199.196C215.874 206.979 213.643 214.973 208.077 216.996ZM247.033 204.564C246.181 198.789 248.215 190.984 254.225 190.046C265.578 188.896 269.227 212.657 259.086 216.409C253.261 218.311 248.174 212.595 247.033 204.564ZM233.717 207.676C228.152 209.699 221.308 205.004 218.479 197.221C212.211 178.286 231.331 171.336 238.7 189.871C241.529 197.654 239.297 205.647 233.717 207.676Z" fill="#D3B3B3"/>
</g>
<g clip-path="url(#clip3_44_120)">
<path d="M99.0813 71.8429C101.058 67.5695 104.596 64.2159 108.97 62.4719C113.343 60.728 118.219 60.7263 122.593 62.4672L142.121 70.2235C153.194 74.37 152.962 90.8299 141.77 94.6537C135.756 96.8669 129.707 95.7463 123.324 98.4262C116.616 100.967 112.737 105.625 106.966 108.532C96.2808 113.079 85.14 101.339 90.2636 90.9021L99.0813 71.8429ZM66.81 61.8679C71.9202 58.5685 78.6178 63.0469 81.8391 67.919C91.7054 83.0435 77.0194 92.533 66.929 78.0699C62.6792 71.8417 62.6288 64.7126 66.81 61.8679ZM93.8495 61.3803C88.3343 63.5796 81.3494 59.098 78.2821 51.4058C71.4488 32.6664 90.3456 25.1311 98.2674 43.4364C101.335 51.1287 99.3502 59.1869 93.8495 61.3803ZM132.405 47.7556C131.375 42.0095 133.168 34.1455 139.146 33.0232C150.458 31.5236 154.837 55.161 144.817 59.2239C139.052 61.3039 133.792 55.7478 132.405 47.7556ZM119.19 51.2754C113.69 53.4689 106.705 48.9873 103.637 41.2951C96.7897 22.5615 115.686 15.0263 123.623 33.3258C126.69 41.018 124.706 49.0762 119.19 51.2754Z" fill="#D3B3B3"/>
</g>
<defs>
<clipPath id="clip0_44_120">
<rect width="100" height="100" fill="white" transform="matrix(-0.890513 0.454958 0.454958 0.890513 89.0513 130)"/>
</clipPath>
<clipPath id="clip1_44_120">
<rect width="100" height="100" fill="white" transform="matrix(-0.86139 0.507944 0.507944 0.86139 158.139 283)"/>
</clipPath>
<clipPath id="clip2_44_120">
<rect width="100" height="100" fill="white" transform="matrix(-0.939835 0.341629 0.341629 0.939835 253.984 157)"/>
</clipPath>
<clipPath id="clip3_44_120">
<rect width="100" height="100" fill="white" transform="matrix(-0.928874 0.370397 0.370397 0.928874 137.887 0)"/>
</clipPath>
</defs>
</svg>
