<svg width="20" height="20" viewBox="0 0 20 20" fill="none" xmlns="http://www.w3.org/2000/svg">
<circle cx="10" cy="10" r="10" fill="#888888"/>
<path fill-rule="evenodd" clip-rule="evenodd" d="M8.37593 8.66666C8.29857 8.66666 8.22438 8.69739 8.16969 8.75208C8.11499 8.80678 8.08426 8.88097 8.08426 8.95832V10.125C8.08426 10.2023 8.11499 10.2765 8.16969 10.3312C8.22438 10.3859 8.29857 10.4167 8.37593 10.4167C8.45328 10.4167 8.52747 10.3859 8.58217 10.3312C8.63686 10.2765 8.66759 10.2023 8.66759 10.125V8.95832C8.66759 8.88097 8.63686 8.80678 8.58217 8.75208C8.52747 8.69739 8.45328 8.66666 8.37593 8.66666ZM11.8759 8.66666C11.7986 8.66666 11.7244 8.69739 11.6697 8.75208C11.615 8.80678 11.5843 8.88097 11.5843 8.95832V10.125C11.5843 10.2023 11.615 10.2765 11.6697 10.3312C11.7244 10.3859 11.7986 10.4167 11.8759 10.4167C11.9533 10.4167 12.0275 10.3859 12.0822 10.3312C12.1369 10.2765 12.1676 10.2023 12.1676 10.125V8.95832C12.1676 8.88097 12.1369 8.80678 12.0822 8.75208C12.0275 8.69739 11.9533 8.66666 11.8759 8.66666Z" fill="white"/>
<path fill-rule="evenodd" clip-rule="evenodd" d="M10.1259 15.0833C9.77265 15.0794 9.42052 15.0422 9.07418 14.9725C9.18209 14.7689 9.25093 14.521 9.25093 14.2083C9.25093 13.8309 9.11326 13.3958 8.84259 12.8999C9.21709 12.8008 9.64643 12.75 10.1259 12.75C11.0353 12.75 11.7663 12.9303 12.2977 13.2843C12.3295 13.3057 12.3652 13.3205 12.4028 13.328C12.4404 13.3355 12.4791 13.3355 12.5167 13.3279C12.5543 13.3204 12.59 13.3055 12.6218 13.2841C12.6536 13.2627 12.6808 13.2352 12.7019 13.2033C12.7447 13.1388 12.7601 13.06 12.7448 12.9842C12.7295 12.9084 12.6847 12.8418 12.6203 12.799C12.0544 12.421 11.3078 12.2203 10.4176 12.1824V11.4124L10.9158 10.9148C10.9567 10.874 10.9845 10.822 10.9958 10.7654C11.0071 10.7087 11.0013 10.65 10.9792 10.5966C10.9571 10.5433 10.9196 10.4977 10.8716 10.4657C10.8235 10.4336 10.767 10.4166 10.7093 10.4167H9.54259C9.48483 10.4166 9.42834 10.4336 9.38028 10.4657C9.33222 10.4977 9.29475 10.5433 9.27264 10.5966C9.25052 10.65 9.24474 10.7087 9.25604 10.7654C9.26734 10.822 9.2952 10.874 9.33609 10.9148L9.83426 11.4124V12.1778C9.35301 12.1976 8.91726 12.2676 8.53226 12.3872C8.37165 12.1486 8.20097 11.917 8.02068 11.693C7.99226 11.6604 7.9572 11.6343 7.91786 11.6165C7.87852 11.5986 7.83581 11.5893 7.79259 11.5893C7.74938 11.5893 7.70667 11.5986 7.66733 11.6165C7.62799 11.6343 7.59293 11.6604 7.56451 11.693C6.96543 12.442 6.59209 13.0784 6.43051 13.6233C6.05833 13.2564 5.75574 12.8252 5.53743 12.3504L6.13476 12.1521C6.20825 12.1276 6.26901 12.075 6.30369 12.0058C6.33837 11.9365 6.34412 11.8563 6.31968 11.7828C6.29523 11.7093 6.2426 11.6486 6.17335 11.6139C6.1041 11.5792 6.02391 11.5735 5.95043 11.5979L5.33326 11.8038C5.22765 11.4537 5.17207 11.0904 5.16818 10.7247L5.94984 10.9854C6.02235 11.0063 6.10013 10.9984 6.16691 10.9632C6.23368 10.9281 6.28427 10.8684 6.30809 10.7968C6.3319 10.7252 6.3271 10.6472 6.29469 10.5791C6.26227 10.5109 6.20476 10.4579 6.13418 10.4313L5.21601 10.1256C5.27849 9.70255 5.40952 9.29254 5.60393 8.91167C5.62656 8.86746 5.63748 8.81818 5.63564 8.76855C5.6338 8.71892 5.61927 8.67058 5.59343 8.62817C5.13084 7.86458 4.88293 6.96975 4.87593 6.03933C4.87184 5.47408 5.00309 4.9065 5.08593 4.6055C5.85593 4.75075 7.33934 5.5855 7.97751 6.52408C8.01383 6.5771 8.06652 6.61676 8.12752 6.63698C8.18851 6.65721 8.25446 6.65689 8.31526 6.63608C9.46443 6.23358 10.781 6.23475 11.9378 6.63492C11.9984 6.65609 12.0644 6.65658 12.1254 6.63632C12.1864 6.61606 12.239 6.57619 12.2749 6.52292C12.9131 5.58492 14.3959 4.75075 15.1659 4.6055C15.2488 4.9065 15.38 5.47408 15.3759 6.03933C15.3689 6.97033 15.1204 7.86517 14.6578 8.627C14.632 8.66952 14.6175 8.71795 14.6156 8.76768C14.6138 8.8174 14.6247 8.86677 14.6473 8.91108C14.8457 9.299 14.9728 9.70617 15.0358 10.1256L14.1171 10.4313C14.0436 10.4557 13.9828 10.5083 13.9482 10.5776C13.9135 10.6468 13.9077 10.727 13.9322 10.8005C13.9566 10.874 14.0093 10.9348 14.0785 10.9694C14.1478 11.0041 14.2279 11.0099 14.3014 10.9854L15.0831 10.7247C15.08 11.0905 15.025 11.454 14.9198 11.8044L14.3014 11.5979C14.2279 11.5735 14.1478 11.5792 14.0785 11.6139C14.0093 11.6486 13.9566 11.7093 13.9322 11.7828C13.9077 11.8563 13.9135 11.9365 13.9482 12.0058C13.9828 12.075 14.0436 12.1276 14.1171 12.1521L14.7179 12.3522C13.9788 13.9523 12.2008 15.0833 10.1259 15.0833ZM6.91759 14.2083C6.91759 13.7522 7.21159 13.128 7.79259 12.351C8.37359 13.128 8.66759 13.7522 8.66759 14.2083C8.66759 14.9317 8.19159 15.0833 7.79259 15.0833C7.39359 15.0833 6.91759 14.9317 6.91759 14.2083ZM16.0514 12.1813L15.4733 11.9888C15.5958 11.5793 15.6676 11.1517 15.6676 10.7083C15.6676 10.6494 15.66 10.5917 15.6577 10.5328L16.0514 10.4021C16.1249 10.3776 16.1857 10.325 16.2204 10.2558C16.255 10.1865 16.2608 10.1063 16.2363 10.0328C16.2119 9.95935 16.1593 9.89858 16.09 9.8639C16.0208 9.82922 15.9406 9.82347 15.8671 9.84792L15.5947 9.93892C15.5277 9.54205 15.4078 9.15595 15.2383 8.79092C15.7083 7.95126 15.9567 7.00568 15.9598 6.04342C15.9657 5.12233 15.6647 4.23392 15.6518 4.19717C15.632 4.13974 15.5948 4.08991 15.5453 4.05458C15.4959 4.01925 15.4367 4.00018 15.3759 4C14.5114 4 12.7597 4.95492 11.9238 6.01658C10.7515 5.6627 9.50083 5.6629 8.32868 6.01717C7.49218 4.9555 5.73984 4 4.87534 4C4.81468 4.0003 4.75561 4.01943 4.70629 4.05475C4.65696 4.09007 4.61983 4.13983 4.60001 4.19717C4.58718 4.23392 4.28501 5.12233 4.29259 6.044C4.29532 7.00599 4.54327 7.95141 5.01301 8.79092C4.84321 9.15585 4.72332 9.54199 4.65659 9.93892L4.38418 9.84792C4.31069 9.82347 4.2305 9.82922 4.16125 9.8639C4.09201 9.89858 4.03937 9.95935 4.01493 10.0328C3.99048 10.1063 3.99623 10.1865 4.03091 10.2558C4.06559 10.325 4.12636 10.3776 4.19984 10.4021L4.59359 10.5328C4.59126 10.5917 4.58368 10.6494 4.58368 10.7083C4.58368 11.1453 4.65543 11.5734 4.77909 11.9882L4.19984 12.1813C4.12636 12.2057 4.06559 12.2583 4.03091 12.3276C3.99623 12.3968 3.99048 12.477 4.01493 12.5505C4.03937 12.624 4.09201 12.6848 4.16125 12.7194C4.2305 12.7541 4.31069 12.7599 4.38418 12.7354L4.98209 12.5359C5.29315 13.2294 5.75937 13.8421 6.34476 14.3267C6.40134 15.3068 7.11534 15.6667 7.79201 15.6667C8.07261 15.6701 8.34939 15.6014 8.59584 15.4672C9.09284 15.5943 9.60501 15.6667 10.1259 15.6667C12.4593 15.6667 14.4566 14.3676 15.2721 12.5371L15.8671 12.7354C15.9406 12.7599 16.0208 12.7541 16.09 12.7194C16.1593 12.6848 16.2119 12.624 16.2363 12.5505C16.2608 12.477 16.255 12.3968 16.2204 12.3276C16.1857 12.2583 16.1249 12.2057 16.0514 12.1813Z" fill="white"/>
</svg>
